<svg width="210" height="50" viewBox="0 0 210 50" fill="none" xmlns="http://www.w3.org/2000/svg">
<path d="M12.8599 17.5199C13.325 18.6051 12.6274 19.8454 11.4647 19.9616C11.1546 20.0004 10.8058 20.0004 10.4957 20.0004C9.21669 20.0004 8.0152 19.7678 6.85246 19.264C5.68972 18.7601 4.72077 18.1012 3.82933 17.2098C2.97666 16.3184 2.27901 15.3107 1.77516 14.1479C1.27131 12.9852 1 11.7062 1 10.3497C1 8.99312 1.27131 7.71411 1.77516 6.55137C2.27901 5.38863 2.97666 4.34216 3.82933 3.45073C4.68201 2.5593 5.68972 1.90041 6.85246 1.39656C8.0152 0.892704 9.21669 0.660156 10.4957 0.660156C10.8833 0.660156 11.3871 0.737672 11.9298 0.853946C13.0537 1.04774 13.5963 2.32675 12.9762 3.2957L12.8987 3.41197C12.5499 3.95458 11.891 4.22589 11.2321 4.14837C10.9996 4.10962 10.7283 4.10962 10.4569 4.10962C9.68179 4.10962 8.94539 4.26465 8.24774 4.57471C7.5501 4.88478 6.96873 5.31111 6.42612 5.85373C5.92226 6.39634 5.49593 7.05522 5.18586 7.83038C4.8758 8.60554 4.72077 9.41946 4.72077 10.3109C4.72077 11.2023 4.8758 12.055 5.18586 12.7914C5.49593 13.5666 5.92226 14.1867 6.42612 14.7681C6.92997 15.3107 7.5501 15.737 8.24774 16.0471C8.94539 16.3571 9.68179 16.5122 10.4569 16.5122C10.6507 16.5122 10.8833 16.5122 11.0771 16.4734C11.8522 16.4347 12.5499 16.8222 12.8599 17.5199Z" fill="#29006C"/>
<path d="M13.2095 9.4582C14.1727 9.4582 14.9536 8.67733 14.9536 7.71409C14.9536 6.75084 14.1727 5.96998 13.2095 5.96998C12.2462 5.96998 11.4654 6.75084 11.4654 7.71409C11.4654 8.67733 12.2462 9.4582 13.2095 9.4582Z" fill="#29006C"/>
<path d="M13.2095 14.1091C14.1727 14.1091 14.9536 13.3283 14.9536 12.365C14.9536 11.4018 14.1727 10.6209 13.2095 10.6209C12.2462 10.6209 11.4654 11.4018 11.4654 12.365C11.4654 13.3283 12.2462 14.1091 13.2095 14.1091Z" fill="#29006C"/>
<path d="M30.1069 19.0301L23.1304 11.0459V17.8286C23.1304 18.875 22.239 19.689 21.115 19.689C19.991 19.689 19.0996 18.875 19.0996 17.8286V2.44166C19.0996 1.39519 19.991 0.581273 21.115 0.581273C22.239 0.581273 23.1304 1.39519 23.1304 2.44166V9.06927L29.603 1.24016C29.9518 0.813821 30.4945 0.581273 31.0758 0.581273C32.6262 0.581273 33.4788 2.20911 32.5486 3.33309L26.9675 9.9607L32.9362 16.8984C33.9052 18.0224 33.0525 19.6502 31.5022 19.6502C30.9596 19.6502 30.4557 19.4177 30.1069 19.0301Z" fill="black"/>
<path d="M170.023 18.6426L163.046 10.6585V17.4411C163.046 18.4876 162.155 19.3015 161.031 19.3015C159.907 19.3015 159.015 18.4876 159.015 17.4411V2.05422C159.015 1.00776 159.907 0.193839 161.031 0.193839C162.155 0.193839 163.046 1.00776 163.046 2.05422V8.68184L169.519 0.891483C169.868 0.465145 170.41 0.232597 170.992 0.232597C172.542 0.232597 173.395 1.86043 172.464 2.98441L166.922 9.61203L172.891 16.5497C173.86 17.6737 173.007 19.3015 171.457 19.3015C170.875 19.2628 170.371 19.0302 170.023 18.6426Z" fill="black"/>
<path d="M49.0981 17.8285V6.89878L40.9977 18.6424C40.6489 19.1463 40.0675 19.4564 39.4474 19.4564H39.0985C38.0521 19.4564 37.1994 18.6037 37.1994 17.5572V2.01527C37.1994 1.12384 37.9358 0.387434 38.8272 0.387434H39.2923C40.1838 0.387434 40.9202 1.12384 40.9202 2.01527V12.945L49.0206 1.20135C49.3694 0.697498 49.9508 0.387434 50.5709 0.387434H50.9197C51.9662 0.387434 52.8189 1.24011 52.8189 2.28658V17.8285C52.8189 18.72 52.0825 19.4564 51.191 19.4564H50.7259C49.8345 19.4564 49.0981 18.72 49.0981 17.8285Z" fill="black"/>
<path d="M117.583 1.93795V17.6349C117.583 18.5264 116.847 19.2628 115.955 19.2628H115.451C114.56 19.2628 113.824 18.5264 113.824 17.6349V8.68184L109.328 18.2938C109.056 18.8752 108.436 19.2628 107.777 19.2628H107.467C106.808 19.2628 106.188 18.8752 105.917 18.2938L101.421 8.68184V17.6737C101.421 18.5651 100.685 19.3015 99.7933 19.3015H99.2894C98.398 19.3015 97.6616 18.5651 97.6616 17.6737V1.93795C97.6616 0.968999 98.4367 0.193839 99.4057 0.193839H99.7933C100.452 0.193839 101.072 0.581419 101.382 1.20155L107.584 14.263L113.785 1.20155C114.056 0.581419 114.676 0.193839 115.374 0.193839H115.762C116.808 0.193839 117.583 0.968999 117.583 1.93795Z" fill="black"/>
<path d="M122.932 19.0689C121.692 19.0689 120.8 17.7899 121.265 16.6272L127.001 1.58908C127.35 0.620128 128.28 0 129.327 0C130.335 0 131.265 0.620128 131.652 1.58908L137.389 16.6272C137.854 17.7899 136.962 19.0689 135.722 19.0689C134.947 19.0689 134.288 18.6038 134.017 17.8674L133.048 15.1156H125.606L124.637 17.8674C124.366 18.6038 123.707 19.0689 122.932 19.0689ZM131.807 11.8212L129.327 4.84475L126.846 11.8212H131.807Z" fill="black"/>
<path d="M148.551 0C149.481 0 150.333 0.155032 151.147 0.503854C151.961 0.852676 152.659 1.27901 153.279 1.86038C153.899 2.44175 154.364 3.10064 154.713 3.8758C155.062 4.65096 155.217 5.46488 155.217 6.35631C155.217 7.20899 155.062 8.06166 154.713 8.83682C154.364 9.61198 153.899 10.2709 153.279 10.8522C152.659 11.4336 151.961 11.8987 151.147 12.2088C150.333 12.5188 149.481 12.7126 148.551 12.7126H144.985V17.2085C144.985 18.255 144.171 19.0689 143.125 19.0689C142.078 19.0689 141.264 18.255 141.264 17.2085V1.2015C141.264 0.542612 141.807 0 142.466 0H148.551ZM148.551 9.2244C148.938 9.2244 149.326 9.14688 149.675 8.99185C150.023 8.83682 150.334 8.60427 150.605 8.37173C150.837 8.13918 151.031 7.86787 151.186 7.59657C151.341 7.2865 151.457 6.89892 151.496 6.5501C151.535 6.12376 151.457 5.69742 151.264 5.30984C151.109 4.96102 150.876 4.65096 150.605 4.41841C150.334 4.1471 150.023 3.95331 149.675 3.79828C149.326 3.64325 148.938 3.56573 148.551 3.56573H144.985V9.30192H148.551V9.2244Z" fill="black"/>
<path d="M190.875 17.3248C190.875 18.2938 190.1 19.0689 189.131 19.0689H178.782C177.852 19.0689 177.077 18.2938 177.077 17.3636V1.39529C177.077 0.620128 177.697 0 178.472 0H188.859C189.828 0 190.604 0.77516 190.604 1.74411C190.604 2.71306 189.828 3.48822 188.859 3.48822H180.837V7.55781H188.084C189.053 7.55781 189.828 8.33297 189.828 9.30192C189.828 10.2709 189.053 11.046 188.084 11.046H180.837V15.5807H189.169C190.1 15.5807 190.875 16.3559 190.875 17.3248Z" fill="black"/>
<path d="M196.029 0H207.734C208.703 0 209.478 0.77516 209.478 1.74411C209.478 2.71306 208.703 3.48822 207.734 3.48822H203.742V17.2085C203.742 18.255 202.928 19.0689 201.882 19.0689C200.835 19.0689 200.021 18.255 200.021 17.2085V3.48822H196.029C195.06 3.48822 194.285 2.71306 194.285 1.74411C194.285 0.77516 195.06 0 196.029 0Z" fill="black"/>
<path d="M71.5774 0.542701H61.8491C61.0352 0.542701 60.3375 1.20159 60.2988 2.0155L59.5236 13.1778C59.4461 14.0692 59.3298 14.6894 58.7872 15.232C58.5159 15.542 57.7795 15.8909 57.1594 16.1234C56.5393 16.3947 56.1517 16.9761 56.1517 17.635C56.1517 17.8675 56.1904 18.1001 56.3067 18.2939C56.578 18.8752 57.1982 19.3016 57.702 19.3016C58.3221 19.3016 58.9423 19.1465 59.5236 18.8752C60.2988 18.4876 61.229 17.9063 61.8879 16.8986C62.3142 16.1234 62.663 15.2707 62.8568 14.2243C62.8956 14.0305 62.9343 13.7979 62.9343 13.5654L63.6707 3.87589H69.4069V17.4412C69.4069 18.4101 70.1821 19.224 71.151 19.224C72.12 19.224 72.8951 18.4101 72.8951 17.4412V1.78296C72.8951 1.12407 72.3138 0.542701 71.5774 0.542701Z" fill="black"/>
<path d="M91.7318 0.542701H82.0035C81.1896 0.542701 80.4919 1.20159 80.4532 2.0155L79.678 13.1778C79.6005 14.0692 79.4842 14.6894 78.9416 15.232C78.6703 15.542 77.9339 15.8909 77.3138 16.1234C76.6937 16.3947 76.3061 16.9761 76.3061 17.635C76.3061 17.8675 76.3448 18.1001 76.4611 18.2939C76.7324 18.8752 77.3525 19.3016 77.8564 19.3016C78.4765 19.3016 79.0966 19.1465 79.678 18.8752C80.4532 18.4876 81.3834 17.9063 82.0423 16.8986C82.4686 16.1234 82.8174 15.2707 83.0112 14.2243C83.05 14.0305 83.0887 13.7979 83.0887 13.5654L83.8251 3.87589H89.5613V17.4412C89.5613 18.4101 90.3365 19.224 91.3054 19.224C92.2744 19.224 93.0495 18.4101 93.0495 17.4412V1.78296C93.0495 1.12407 92.4682 0.542701 91.7318 0.542701Z" fill="black"/>
<path d="M6.38965 39.75C6.38965 40.0605 6.32227 40.3594 6.1875 40.6465C6.05859 40.9277 5.87695 41.1768 5.64258 41.3936C5.4082 41.6045 5.12402 41.7744 4.79004 41.9033C4.46191 42.0264 4.0957 42.0879 3.69141 42.0879C3.25781 42.0879 2.86816 42.0264 2.52246 41.9033C2.18262 41.7744 1.88965 41.5986 1.64355 41.376C1.39746 41.1533 1.20117 40.8955 1.05469 40.6025C0.914062 40.3096 0.832031 39.9961 0.808594 39.6621H1.61719C1.71094 40.166 1.91895 40.5615 2.24121 40.8486C2.56934 41.1357 3.05273 41.2793 3.69141 41.2793C4.27734 41.2793 4.7373 41.127 5.07129 40.8223C5.41113 40.5176 5.58105 40.1602 5.58105 39.75C5.58105 39.3926 5.4668 39.1172 5.23828 38.9238C5.00977 38.7305 4.72559 38.584 4.38574 38.4844C4.05176 38.3789 3.68262 38.2881 3.27832 38.2119C2.87988 38.1357 2.51074 38.0244 2.1709 37.8779C1.83691 37.7314 1.55566 37.5264 1.32715 37.2627C1.10449 36.999 0.993164 36.627 0.993164 36.1465C0.993164 35.8594 1.05176 35.584 1.16895 35.3203C1.29199 35.0566 1.46191 34.8281 1.67871 34.6348C1.90137 34.4355 2.17383 34.2803 2.49609 34.1689C2.82422 34.0518 3.19336 33.9932 3.60352 33.9932C3.99023 33.9932 4.3418 34.0576 4.6582 34.1865C4.97461 34.3096 5.25293 34.4736 5.49316 34.6787C5.7334 34.8779 5.9209 35.1152 6.05566 35.3906C6.19629 35.666 6.27832 35.9502 6.30176 36.2432H5.49316C5.39941 35.833 5.19434 35.4902 4.87793 35.2148C4.56738 34.9395 4.14258 34.8018 3.60352 34.8018C3.01758 34.8018 2.56934 34.9365 2.25879 35.2061C1.9541 35.4756 1.80176 35.7891 1.80176 36.1465C1.80176 36.4922 1.91602 36.7529 2.14453 36.9287C2.37305 37.1045 2.6543 37.2422 2.98828 37.3418C3.32227 37.4355 3.69141 37.5234 4.0957 37.6055C4.5 37.6816 4.86914 37.7959 5.20312 37.9482C5.53711 38.0947 5.81836 38.3057 6.04688 38.5811C6.27539 38.8564 6.38965 39.2461 6.38965 39.75ZM14.8447 40.0225C14.7393 40.2744 14.5898 40.5234 14.3965 40.7695C14.2031 41.0156 13.9717 41.2383 13.7021 41.4375C13.4326 41.6309 13.1221 41.7891 12.7705 41.9121C12.4248 42.0293 12.0352 42.0879 11.6016 42.0879C11.0625 42.0879 10.5615 41.9883 10.0986 41.7891C9.63574 41.584 9.23438 41.3027 8.89453 40.9453C8.56055 40.582 8.29688 40.1543 8.10352 39.6621C7.91602 39.1699 7.82227 38.6279 7.82227 38.0361C7.82227 37.4502 7.91602 36.9111 8.10352 36.4189C8.29688 35.9268 8.55762 35.502 8.88574 35.1445C9.21973 34.7812 9.6123 34.5 10.0635 34.3008C10.5146 34.0957 10.998 33.9932 11.5137 33.9932C12.0059 33.9932 12.4688 34.0898 12.9023 34.2832C13.3418 34.4707 13.7227 34.7344 14.0449 35.0742C14.373 35.4082 14.6309 35.8066 14.8184 36.2695C15.0117 36.7324 15.1084 37.2334 15.1084 37.7725C15.1084 37.8662 15.1025 37.9512 15.0908 38.0273C15.0791 38.0977 15.0674 38.1621 15.0557 38.2207C15.0439 38.2793 15.0322 38.3379 15.0205 38.3965H8.63086C8.67773 38.8301 8.7832 39.2256 8.94727 39.583C9.11133 39.9346 9.32227 40.2363 9.58008 40.4883C9.83789 40.7402 10.1367 40.9365 10.4766 41.0771C10.8164 41.2119 11.1914 41.2793 11.6016 41.2793C11.8887 41.2793 12.1523 41.2412 12.3926 41.165C12.6328 41.083 12.8467 40.9805 13.0342 40.8574C13.2217 40.7285 13.3799 40.5908 13.5088 40.4443C13.6436 40.292 13.7578 40.1514 13.8516 40.0225H14.8447ZM11.5137 34.8018C11.1562 34.8018 10.8164 34.8721 10.4941 35.0127C10.1777 35.1475 9.89355 35.3379 9.6416 35.584C9.38965 35.8301 9.17578 36.126 9 36.4717C8.82422 36.8115 8.70117 37.1836 8.63086 37.5879H14.2998C14.2529 37.1777 14.1475 36.8027 13.9834 36.4629C13.8252 36.123 13.623 35.8301 13.377 35.584C13.1309 35.3379 12.8467 35.1475 12.5244 35.0127C12.208 34.8721 11.8711 34.8018 11.5137 34.8018ZM20.874 33.9932V34.8018H20.4258C19.6582 34.8018 19.0459 35.0332 18.5889 35.4961C18.1377 35.9531 17.9121 36.5918 17.9121 37.4121V42H17.0947V34.0811H17.6396L17.9121 35.25H18C18.1465 35.0215 18.3369 34.8105 18.5713 34.6172C18.7764 34.459 19.0371 34.3154 19.3535 34.1865C19.6758 34.0576 20.0625 33.9932 20.5137 33.9932H20.874ZM22.5088 34.0811L25.207 40.8311L27.9141 34.0811H28.8105L25.5674 42H24.8467L21.6123 34.0811H22.5088ZM31.2363 42H30.4277V34.0811H31.2363V42ZM30.2432 31.5586C30.2432 31.377 30.3018 31.2275 30.4189 31.1104C30.542 30.9873 30.6943 30.9258 30.876 30.9258C31.0576 30.9258 31.207 30.9873 31.3242 31.1104C31.4414 31.2275 31.5 31.377 31.5 31.5586C31.5 31.7402 31.4414 31.8926 31.3242 32.0156C31.207 32.1328 31.0576 32.1914 30.876 32.1914C30.6943 32.1914 30.542 32.1328 30.4189 32.0156C30.3018 31.8926 30.2432 31.7402 30.2432 31.5586ZM37.0898 34.8018C36.7031 34.8018 36.334 34.8838 35.9824 35.0479C35.6367 35.2061 35.332 35.4287 35.0684 35.7158C34.8047 36.0029 34.5938 36.3457 34.4355 36.7441C34.2832 37.1426 34.207 37.5732 34.207 38.0361C34.207 38.5049 34.2832 38.9385 34.4355 39.3369C34.5938 39.7295 34.8047 40.0723 35.0684 40.3652C35.332 40.6523 35.6367 40.8779 35.9824 41.042C36.334 41.2002 36.7031 41.2793 37.0898 41.2793C37.7285 41.2793 38.2617 41.0859 38.6895 40.6992C39.123 40.3066 39.4277 39.8408 39.6035 39.3018H40.5088C40.2803 40.1162 39.876 40.7842 39.2959 41.3057C38.7217 41.8271 37.9863 42.0879 37.0898 42.0879C36.5742 42.0879 36.0908 41.9883 35.6396 41.7891C35.1885 41.584 34.7959 41.3027 34.4619 40.9453C34.1338 40.582 33.873 40.1543 33.6797 39.6621C33.4922 39.1699 33.3984 38.6279 33.3984 38.0361C33.3984 37.4502 33.4922 36.9111 33.6797 36.4189C33.873 35.9268 34.1338 35.502 34.4619 35.1445C34.7959 34.7812 35.1885 34.5 35.6396 34.3008C36.0908 34.0957 36.5742 33.9932 37.0898 33.9932C37.9922 33.9932 38.7305 34.2539 39.3047 34.7754C39.8789 35.2969 40.2803 35.9648 40.5088 36.7793H39.6035C39.4219 36.2402 39.1172 35.7773 38.6895 35.3906C38.2617 34.998 37.7285 34.8018 37.0898 34.8018ZM48.876 40.0225C48.7705 40.2744 48.6211 40.5234 48.4277 40.7695C48.2344 41.0156 48.0029 41.2383 47.7334 41.4375C47.4639 41.6309 47.1533 41.7891 46.8018 41.9121C46.4561 42.0293 46.0664 42.0879 45.6328 42.0879C45.0938 42.0879 44.5928 41.9883 44.1299 41.7891C43.667 41.584 43.2656 41.3027 42.9258 40.9453C42.5918 40.582 42.3281 40.1543 42.1348 39.6621C41.9473 39.1699 41.8535 38.6279 41.8535 38.0361C41.8535 37.4502 41.9473 36.9111 42.1348 36.4189C42.3281 35.9268 42.5889 35.502 42.917 35.1445C43.251 34.7812 43.6436 34.5 44.0947 34.3008C44.5459 34.0957 45.0293 33.9932 45.5449 33.9932C46.0371 33.9932 46.5 34.0898 46.9336 34.2832C47.373 34.4707 47.7539 34.7344 48.0762 35.0742C48.4043 35.4082 48.6621 35.8066 48.8496 36.2695C49.043 36.7324 49.1396 37.2334 49.1396 37.7725C49.1396 37.8662 49.1338 37.9512 49.1221 38.0273C49.1104 38.0977 49.0986 38.1621 49.0869 38.2207C49.0752 38.2793 49.0635 38.3379 49.0518 38.3965H42.6621C42.709 38.8301 42.8145 39.2256 42.9785 39.583C43.1426 39.9346 43.3535 40.2363 43.6113 40.4883C43.8691 40.7402 44.168 40.9365 44.5078 41.0771C44.8477 41.2119 45.2227 41.2793 45.6328 41.2793C45.9199 41.2793 46.1836 41.2412 46.4238 41.165C46.6641 41.083 46.8779 40.9805 47.0654 40.8574C47.2529 40.7285 47.4111 40.5908 47.54 40.4443C47.6748 40.292 47.7891 40.1514 47.8828 40.0225H48.876ZM45.5449 34.8018C45.1875 34.8018 44.8477 34.8721 44.5254 35.0127C44.209 35.1475 43.9248 35.3379 43.6729 35.584C43.4209 35.8301 43.207 36.126 43.0312 36.4717C42.8555 36.8115 42.7324 37.1836 42.6621 37.5879H48.3311C48.2842 37.1777 48.1787 36.8027 48.0146 36.4629C47.8564 36.123 47.6543 35.8301 47.4082 35.584C47.1621 35.3379 46.8779 35.1475 46.5557 35.0127C46.2393 34.8721 45.9023 34.8018 45.5449 34.8018Z" fill="#C3C2C9"/>
</svg>
