<svg width="14" height="14" viewBox="0 0 14 14" fill="none" xmlns="http://www.w3.org/2000/svg">
<path d="M12.0353 1.69384H10.9711V0.967466C10.9711 0.433154 10.5379 0 10.0036 0H9.96489C9.43058 0 8.99742 0.433154 8.99742 0.967466V1.69384H4.0053V0.967466C4.0053 0.433154 3.57215 0 3.03784 0H2.99914C2.46483 0 2.03168 0.433154 2.03168 0.967466V1.69384H0.967465C0.433153 1.69384 0 2.12699 0 2.6613V13.0325C0 13.5669 0.433153 14 0.967465 14H12.0353C12.5696 14 13.0027 13.5669 13.0027 13.0325V2.6613C13.0027 2.12699 12.5695 1.69384 12.0353 1.69384ZM11.3774 12.4714H1.62534V4.61558H11.3774V12.4714Z" fill="#xxx" />
<path d="M2.95069 8.17062H4.634C4.71949 8.17062 4.7888 8.10131 4.7888 8.01583V6.33253C4.7888 6.24704 4.71949 6.17773 4.634 6.17773H2.95069C2.86521 6.17773 2.7959 6.24704 2.7959 6.33253V8.01583C2.7959 8.10131 2.86521 8.17062 2.95069 8.17062Z" fill="#xxx" />
<path d="M5.65968 8.17062H7.34299C7.42847 8.17062 7.49778 8.10131 7.49778 8.01583V6.33253C7.49778 6.24704 7.42847 6.17773 7.34299 6.17773H5.65968C5.57419 6.17773 5.50488 6.24704 5.50488 6.33253V8.01583C5.50488 8.10131 5.57419 8.17062 5.65968 8.17062Z" fill="#xxx" />
<path d="M8.36866 8.17062H10.052C10.1375 8.17062 10.2068 8.10131 10.2068 8.01583V6.33253C10.2068 6.24704 10.1375 6.17773 10.052 6.17773H8.36866C8.28318 6.17773 8.21387 6.24704 8.21387 6.33253V8.01583C8.21387 8.10131 8.28318 8.17062 8.36866 8.17062Z" fill="#xxx" />
<path d="M2.95069 10.8794H4.634C4.71949 10.8794 4.7888 10.8101 4.7888 10.7246V9.04127C4.7888 8.95578 4.71949 8.88647 4.634 8.88647H2.95069C2.86521 8.88647 2.7959 8.95578 2.7959 9.04127V10.7246C2.7959 10.8101 2.86521 10.8794 2.95069 10.8794Z" fill="#xxx"  />
<path d="M5.65968 10.8794H7.34299C7.42847 10.8794 7.49778 10.8101 7.49778 10.7246V9.04127C7.49778 8.95578 7.42847 8.88647 7.34299 8.88647H5.65968C5.57419 8.88647 5.50488 8.95578 5.50488 9.04127V10.7246C5.50488 10.8101 5.57419 10.8794 5.65968 10.8794Z" fill="#xxx" />
<path d="M8.36866 10.8794H10.052C10.1375 10.8794 10.2068 10.8101 10.2068 10.7246V9.04127C10.2068 8.95578 10.1375 8.88647 10.052 8.88647H8.36866C8.28318 8.88647 8.21387 8.95578 8.21387 9.04127V10.7246C8.21387 10.8101 8.28318 10.8794 8.36866 10.8794Z" fill="#xxx" />
</svg>
