<svg width="50" height="50" viewBox="0 0 50 50" fill="none" xmlns="http://www.w3.org/2000/svg">
<circle cx="25" cy="25" r="24.5" stroke="#xxx" stroke-linejoin="round" stroke-dasharray="3 3"/>
<path d="M35.9493 16.5507C35.5821 16.1836 35.1409 16 34.6251 16H15.875C15.3594 16 14.9181 16.1835 14.5507 16.5507C14.1835 16.9179 14 17.3592 14 17.8749V32.1249C14 32.6407 14.1835 33.082 14.5507 33.4492C14.9181 33.8164 15.3594 34 15.875 34H34.6254C35.1409 34 35.5822 33.8164 35.9494 33.4492C36.3166 33.0821 36.5003 32.6407 36.5003 32.1249V17.8749C36.5003 17.3592 36.3166 16.9179 35.9493 16.5507ZM35 32.1249C35 32.2266 34.9631 32.3142 34.8889 32.3887C34.8146 32.4626 34.7267 32.4997 34.6251 32.4997H15.875C15.7735 32.4997 15.6856 32.4626 15.6114 32.3887C15.5372 32.3143 15.5001 32.2266 15.5001 32.1249V17.8747C15.5001 17.7732 15.5371 17.6855 15.6114 17.6111C15.6856 17.5371 15.7736 17.4999 15.875 17.4999H34.6254C34.7268 17.4999 34.8147 17.5371 34.8889 17.6111C34.9628 17.6855 35 17.7732 35 17.8747V32.1249Z" fill="#xxx"/>
<path d="M19.2509 23.4999C19.876 23.4999 20.4072 23.2812 20.8447 22.8437C21.2821 22.4061 21.5009 21.875 21.5009 21.2501C21.5009 20.6249 21.282 20.0937 20.8447 19.6562C20.4072 19.2188 19.8759 19 19.2509 19C18.6259 19 18.0947 19.2188 17.6571 19.6562C17.2198 20.0937 17.001 20.6249 17.001 21.2501C17.001 21.875 17.2196 22.4063 17.6571 22.8437C18.0947 23.2811 18.6259 23.4999 19.2509 23.4999Z" fill="#xxx"/>
<path d="M22.625 26.875L20.7499 25.0001L17 28.7501V31.0002H33.5001V25.7501L28.6251 20.875L22.625 26.875Z" fill="#xxx"/>
</svg>
