<svg width="23" height="18" viewBox="0 0 23 18" fill="none" xmlns="http://www.w3.org/2000/svg">
<path d="M21.9493 0.550712C21.5821 0.183557 21.1409 0 20.6251 0H1.87502C1.3594 0 0.918114 0.183516 0.550712 0.550712C0.183516 0.917949 0 1.35923 0 1.87489V16.1249C0 16.6407 0.183516 17.082 0.550712 17.4492C0.918114 17.8164 1.3594 18 1.87502 18H20.6254C21.1409 18 21.5822 17.8164 21.9494 17.4492C22.3166 17.0821 22.5003 16.6407 22.5003 16.1249V1.87489C22.5003 1.35923 22.3166 0.917949 21.9493 0.550712ZM21 16.1249C21 16.2266 20.9631 16.3142 20.8889 16.3887C20.8146 16.4626 20.7267 16.4997 20.6251 16.4997H1.87502C1.77351 16.4997 1.68559 16.4626 1.61138 16.3887C1.53721 16.3143 1.50006 16.2266 1.50006 16.1249V1.87473C1.50006 1.77318 1.53708 1.68547 1.61138 1.61109C1.68563 1.53708 1.77355 1.49994 1.87502 1.49994H20.6254C20.7268 1.49994 20.8147 1.53708 20.8889 1.61109C20.9628 1.68547 21 1.77318 21 1.87473V16.1249Z" fill="#xxx"/>
<path d="M5.25086 7.4999C5.87595 7.4999 6.40717 7.28125 6.84471 6.8437C7.28214 6.40615 7.50091 5.87497 7.50091 5.25005C7.50091 4.62492 7.28202 4.09375 6.84471 3.65616C6.40717 3.21877 5.87591 3 5.25086 3C4.62586 3 4.09468 3.21877 3.65714 3.65616C3.21975 4.09371 3.00098 4.62488 3.00098 5.25005C3.00098 5.87497 3.21963 6.40627 3.65714 6.8437C4.09468 7.28112 4.62586 7.4999 5.25086 7.4999Z" fill="#xxx"/>
<path d="M8.625 10.875L6.74995 9.00015L3 12.7501V15.0002H19.5001V9.75014L14.6251 4.875L8.625 10.875Z" fill="#xxx"/>
</svg>
