<svg width="136" height="13" viewBox="0 0 136 13" fill="none" xmlns="http://www.w3.org/2000/svg">
<path d="M7.7092 11.3876C8.01152 12.093 7.55804 12.8992 6.80224 12.9748C6.60069 13 6.37395 13 6.1724 13C5.34102 13 4.56002 12.8488 3.80421 12.5213C3.04841 12.1938 2.41857 11.7655 1.83912 11.1861C1.28487 10.6066 0.831384 9.9516 0.503869 9.19579C0.176354 8.43999 0 7.6086 0 6.72683C0 5.84506 0.176354 5.01368 0.503869 4.25787C0.831384 3.50207 1.28487 2.82185 1.83912 2.2424C2.39338 1.66295 3.04841 1.23466 3.80421 0.907143C4.56002 0.579628 5.34102 0.428467 6.1724 0.428467C6.42433 0.428467 6.75185 0.478854 7.10456 0.554434C7.83517 0.680401 8.18788 1.51179 7.78478 2.14162L7.73439 2.2172C7.50765 2.56991 7.07936 2.74627 6.65108 2.69588C6.49991 2.67069 6.32356 2.67069 6.14721 2.67069C5.64334 2.67069 5.16466 2.77146 4.71118 2.97301C4.2577 3.17455 3.87979 3.45168 3.52709 3.80439C3.19957 4.1571 2.92244 4.58539 2.72089 5.08926C2.51935 5.59313 2.41857 6.12219 2.41857 6.70164C2.41857 7.28109 2.51935 7.83534 2.72089 8.31402C2.92244 8.81789 3.19957 9.22098 3.52709 9.59889C3.8546 9.9516 4.2577 10.2287 4.71118 10.4303C5.16466 10.6318 5.64334 10.7326 6.14721 10.7326C6.27317 10.7326 6.42433 10.7326 6.5503 10.7074C7.05417 10.6822 7.50765 10.9341 7.7092 11.3876Z" fill="#29006C"/>
<path d="M7.9364 6.14737C8.56253 6.14737 9.07011 5.63979 9.07011 5.01366C9.07011 4.38754 8.56253 3.87996 7.9364 3.87996C7.31027 3.87996 6.80269 4.38754 6.80269 5.01366C6.80269 5.63979 7.31027 6.14737 7.9364 6.14737Z" fill="#29006C"/>
<path d="M7.9364 9.17056C8.56253 9.17056 9.07011 8.66298 9.07011 8.03686C9.07011 7.41073 8.56253 6.90315 7.9364 6.90315C7.31027 6.90315 6.80269 7.41073 6.80269 8.03686C6.80269 8.66298 7.31027 9.17056 7.9364 9.17056Z" fill="#29006C"/>
<path d="M18.9206 12.3699L14.3857 7.18007V11.5889C14.3857 12.2692 13.8063 12.7982 13.0757 12.7982C12.3451 12.7982 11.7656 12.2692 11.7656 11.5889V1.58713C11.7656 0.906902 12.3451 0.377839 13.0757 0.377839C13.8063 0.377839 14.3857 0.906902 14.3857 1.58713V5.89521L18.5931 0.806128C18.8198 0.529 19.1725 0.377839 19.5504 0.377839C20.5581 0.377839 21.1124 1.43596 20.5078 2.16658L16.8799 6.47466L20.7597 10.9843C21.3895 11.7149 20.8353 12.773 19.8275 12.773C19.4748 12.773 19.1473 12.6219 18.9206 12.3699Z" fill="black"/>
<path d="M109.869 12.1181L105.334 6.92823V11.3371C105.334 12.0173 104.754 12.5464 104.024 12.5464C103.293 12.5464 102.714 12.0173 102.714 11.3371V1.33529C102.714 0.655062 103.293 0.125999 104.024 0.125999C104.754 0.125999 105.334 0.655062 105.334 1.33529V5.64337L109.541 0.579482C109.768 0.302354 110.121 0.151193 110.498 0.151193C111.506 0.151193 112.06 1.20932 111.456 1.93993L107.853 6.24801L111.733 10.7576C112.363 11.4883 111.808 12.5464 110.801 12.5464C110.423 12.5212 110.095 12.37 109.869 12.1181Z" fill="black"/>
<path d="M31.2652 11.5889V4.48434L25.9998 12.118C25.7731 12.4455 25.3952 12.647 24.9921 12.647H24.7653C24.0851 12.647 23.5309 12.0928 23.5309 11.4125V1.30997C23.5309 0.730516 24.0095 0.25184 24.589 0.25184H24.8913C25.4707 0.25184 25.9494 0.730516 25.9494 1.30997V8.41452L31.2149 0.780903C31.4416 0.453388 31.8195 0.25184 32.2226 0.25184H32.4493C33.1296 0.25184 33.6838 0.806096 33.6838 1.48632V11.5889C33.6838 12.1684 33.2051 12.647 32.6257 12.647H32.3234C31.7439 12.647 31.2652 12.1684 31.2652 11.5889Z" fill="black"/>
<path d="M75.7819 1.25971V11.4631C75.7819 12.0425 75.3032 12.5212 74.7238 12.5212H74.3963C73.8168 12.5212 73.3382 12.0425 73.3382 11.4631V5.64337L70.4157 11.8913C70.2394 12.2692 69.8363 12.5212 69.408 12.5212H69.2064C68.7781 12.5212 68.375 12.2692 68.1987 11.8913L65.2762 5.64337V11.4883C65.2762 12.0677 64.7976 12.5464 64.2181 12.5464H63.8906C63.3112 12.5464 62.8325 12.0677 62.8325 11.4883V1.25971C62.8325 0.629869 63.3364 0.125999 63.9662 0.125999H64.2181C64.6464 0.125999 65.0495 0.377934 65.2511 0.781029L69.282 9.27123L73.313 0.781029C73.4893 0.377934 73.8924 0.125999 74.3459 0.125999H74.5978C75.278 0.125999 75.7819 0.629869 75.7819 1.25971Z" fill="black"/>
<path d="M79.2587 12.3952C78.4525 12.3952 77.873 11.5638 78.1754 10.808L81.904 1.03293C82.1307 0.403095 82.7354 0 83.4156 0C84.0706 0 84.6753 0.403095 84.9272 1.03293L88.6558 10.808C88.9581 11.5638 88.3787 12.3952 87.5725 12.3952C87.0686 12.3952 86.6404 12.0929 86.464 11.6142L85.8342 9.82545H80.997L80.3672 11.6142C80.1908 12.0929 79.7625 12.3952 79.2587 12.3952ZM85.028 7.68401L83.4156 3.14918L81.8032 7.68401H85.028Z" fill="black"/>
<path d="M95.9114 0C96.516 0 97.0703 0.100774 97.5994 0.327515C98.1284 0.554256 98.5819 0.831384 98.985 1.20929C99.3881 1.58719 99.6904 2.01548 99.9172 2.51935C100.144 3.02322 100.245 3.55228 100.245 4.13173C100.245 4.68599 100.144 5.24024 99.9172 5.74411C99.6904 6.24798 99.3881 6.67627 98.985 7.05417C98.5819 7.43207 98.1284 7.73439 97.5994 7.93594C97.0703 8.13749 96.516 8.26346 95.9114 8.26346H93.5936V11.1859C93.5936 11.8661 93.0645 12.3952 92.3843 12.3952C91.7041 12.3952 91.175 11.8661 91.175 11.1859V0.780997C91.175 0.352709 91.5277 0 91.956 0H95.9114ZM95.9114 5.99605C96.1633 5.99605 96.4153 5.94566 96.642 5.84488C96.8687 5.74411 97.0703 5.59295 97.2467 5.44179C97.3978 5.29063 97.5238 5.11427 97.6245 4.93792C97.7253 4.73637 97.8009 4.48444 97.8261 4.2577C97.8513 3.98057 97.8009 3.70344 97.6749 3.45151C97.5742 3.22476 97.423 3.02322 97.2467 2.87206C97.0703 2.6957 96.8687 2.56973 96.642 2.46896C96.4153 2.36819 96.1633 2.3178 95.9114 2.3178H93.5936V6.04643H95.9114V5.99605Z" fill="black"/>
<path d="M123.423 11.2615C123.423 11.8913 122.919 12.3952 122.289 12.3952H115.563C114.958 12.3952 114.454 11.8913 114.454 11.2867V0.906965C114.454 0.403095 114.857 0 115.361 0H122.113C122.743 0 123.247 0.503869 123.247 1.13371C123.247 1.76354 122.743 2.26741 122.113 2.26741H116.898V4.91273H121.609C122.239 4.91273 122.743 5.4166 122.743 6.04643C122.743 6.67627 122.239 7.18014 121.609 7.18014H116.898V10.1278H122.314C122.919 10.1278 123.423 10.6316 123.423 11.2615Z" fill="black"/>
<path d="M126.774 0H134.382C135.012 0 135.516 0.503869 135.516 1.13371C135.516 1.76354 135.012 2.26741 134.382 2.26741H131.787V11.1859C131.787 11.8661 131.258 12.3952 130.578 12.3952C129.898 12.3952 129.368 11.8661 129.368 11.1859V2.26741H126.774C126.144 2.26741 125.64 1.76354 125.64 1.13371C125.64 0.503869 126.144 0 126.774 0Z" fill="black"/>
<path d="M45.8772 0.352766H39.5537C39.0246 0.352766 38.5711 0.781055 38.5459 1.31012L38.0421 8.56583C37.9917 9.14529 37.9161 9.54838 37.5634 9.90109C37.387 10.1026 36.9083 10.3294 36.5053 10.4805C36.1022 10.6569 35.8502 11.0348 35.8502 11.4631C35.8502 11.6142 35.8754 11.7654 35.951 11.8914C36.1273 12.2693 36.5304 12.5464 36.858 12.5464C37.2611 12.5464 37.6642 12.4456 38.0421 12.2693C38.5459 12.0173 39.1506 11.6394 39.5789 10.9844C39.856 10.4805 40.0827 9.92628 40.2087 9.24606C40.2339 9.12009 40.2591 8.96893 40.2591 8.81777L40.7378 2.5194H44.4664V11.3371C44.4664 11.967 44.9703 12.496 45.6001 12.496C46.2299 12.496 46.7338 11.967 46.7338 11.3371V1.15896C46.7338 0.730668 46.3559 0.352766 45.8772 0.352766Z" fill="black"/>
<path d="M58.978 0.352766H52.6544C52.1254 0.352766 51.6719 0.781055 51.6467 1.31012L51.1428 8.56583C51.0924 9.14529 51.0168 9.54838 50.6641 9.90109C50.4878 10.1026 50.0091 10.3294 49.606 10.4805C49.2029 10.6569 48.951 11.0348 48.951 11.4631C48.951 11.6142 48.9762 11.7654 49.0518 11.8914C49.2281 12.2693 49.6312 12.5464 49.9587 12.5464C50.3618 12.5464 50.7649 12.4456 51.1428 12.2693C51.6467 12.0173 52.2513 11.6394 52.6796 10.9844C52.9567 10.4805 53.1835 9.92628 53.3094 9.24606C53.3346 9.12009 53.3598 8.96893 53.3598 8.81777L53.8385 2.5194H57.5671V11.3371C57.5671 11.967 58.071 12.496 58.7009 12.496C59.3307 12.496 59.8346 11.967 59.8346 11.3371V1.15896C59.8346 0.730668 59.4567 0.352766 58.978 0.352766Z" fill="black"/>
</svg>
