<svg width="19" height="26" viewBox="0 0 19 26" fill="none" xmlns="http://www.w3.org/2000/svg">
<path d="M15.9439 22.6653C16.5691 24.1242 15.6313 25.7916 14.0681 25.9479C13.6513 26 13.1824 26 12.7655 26C11.0461 26 9.43086 25.6874 7.86774 25.01C6.30461 24.3327 5.002 23.4469 3.80361 22.2485C2.65731 21.0501 1.71944 19.6954 1.04208 18.1323C0.364729 16.5691 0 14.8497 0 13.0261C0 11.2024 0.364729 9.48297 1.04208 7.91984C1.71944 6.35671 2.65731 4.9499 3.80361 3.7515C4.9499 2.55311 6.30461 1.66733 7.86774 0.98998C9.43086 0.312625 11.0461 0 12.7655 0C13.2866 0 13.9639 0.104208 14.6934 0.260521C16.2044 0.521042 16.9339 2.24048 16.1002 3.54309L15.996 3.6994C15.5271 4.42886 14.6413 4.79359 13.7555 4.68938C13.4429 4.63727 13.0782 4.63727 12.7134 4.63727C11.6713 4.63727 10.6814 4.84569 9.74349 5.26253C8.80561 5.67936 8.02405 6.25251 7.29459 6.98196C6.61724 7.71142 6.04409 8.59719 5.62725 9.63928C5.21042 10.6814 5.002 11.7756 5.002 12.9739C5.002 14.1723 5.21042 15.3186 5.62725 16.3086C6.04409 17.3507 6.61724 18.1844 7.29459 18.9659C7.97194 19.6954 8.80561 20.2685 9.74349 20.6854C10.6814 21.1022 11.6713 21.3106 12.7134 21.3106C12.9739 21.3106 13.2866 21.3106 13.5471 21.2585C14.5892 21.2064 15.5271 21.7275 15.9439 22.6653Z" fill="#29006C"/>
<path d="M16.4138 11.8276C17.7087 11.8276 18.7585 10.7779 18.7585 9.48294C18.7585 8.188 17.7087 7.13825 16.4138 7.13825C15.1188 7.13825 14.0691 8.188 14.0691 9.48294C14.0691 10.7779 15.1188 11.8276 16.4138 11.8276Z" fill="#29006C"/>
<path d="M16.4138 18.0801C17.7087 18.0801 18.7585 17.0303 18.7585 15.7354C18.7585 14.4405 17.7087 13.3907 16.4138 13.3907C15.1188 13.3907 14.0691 14.4405 14.0691 15.7354C14.0691 17.0303 15.1188 18.0801 16.4138 18.0801Z" fill="#29006C"/>
</svg>
