<svg width="23" height="24" viewBox="0 0 23 24" fill="none" xmlns="http://www.w3.org/2000/svg">
<path d="M20.5455 15.9261C20.3015 15.7125 20.0712 15.5108 19.9665 15.3224C19.9571 15.3051 19.9468 15.2877 19.9351 15.2681L19.9297 15.2592C19.5042 14.5784 19.3404 12.8354 19.2422 11.79C19.2275 11.6333 19.2134 11.4832 19.1993 11.3428C19.1978 11.3275 19.1959 11.3122 19.1939 11.2966L19.1927 11.2881C18.9642 9.68971 18.396 7.384 16.9872 5.47687C16.0236 4.17286 14.8296 3.28447 13.4326 2.83124C13.2474 1.79178 12.3368 1 11.2448 1C10.1524 1 9.24146 1.79238 9.05673 2.83253C7.67264 3.28584 6.45109 4.1929 5.50233 5.47739C4.09348 7.38408 3.52532 9.68971 3.29682 11.2883L3.29562 11.2968C3.29365 11.3124 3.29177 11.3277 3.29023 11.3427C3.27592 11.4851 3.26171 11.6361 3.24681 11.7942C3.14891 12.8357 2.98516 14.5788 2.55985 15.2592L2.55429 15.2682C2.54598 15.282 2.53801 15.2957 2.52602 15.3168C2.41828 15.5105 2.1879 15.7125 1.94399 15.9263C1.30003 16.4907 -0.0397869 17.6652 1.06939 19.725C1.29643 20.147 1.73527 20.4091 2.21454 20.4091H5.30406C5.43133 21.8589 6.65142 23 8.13366 23C9.6159 23 10.8359 21.8589 10.9633 20.4091H20.2748C20.7535 20.4091 21.1922 20.1471 21.4199 19.7251C22.529 17.6656 21.1896 16.491 20.5455 15.9261ZM8.13374 21.7153C7.36089 21.7153 6.71959 21.1485 6.59917 20.4091H9.66831C9.5479 21.1485 8.9066 21.7153 8.13374 21.7153ZM20.289 19.1156C20.286 19.1211 20.2806 19.1244 20.2749 19.1244H2.21471C2.20897 19.1244 2.20349 19.1212 2.20075 19.116C1.62 18.0375 2.05738 17.5354 2.79101 16.8923C3.10661 16.6157 3.43291 16.3295 3.64479 15.9484L3.65362 15.9332C4.19206 15.0653 4.37354 13.5369 4.52599 11.9144C4.54055 11.7591 4.55451 11.6108 4.56855 11.4708L4.56932 11.4644C4.77744 10.0127 5.28753 7.92989 6.53563 6.24073C7.41964 5.04386 8.52497 4.27263 9.82076 3.9483L10.3071 3.8266V3.22212C10.3071 2.70517 10.7277 2.28458 11.2447 2.28458C11.7616 2.28458 12.1822 2.70517 12.1822 3.22212V3.82626L12.6685 3.94804C13.9644 4.27263 15.0698 5.04394 15.9538 6.24048C17.2019 7.93006 17.7119 10.0126 17.92 11.4644L17.9209 11.4714C17.9349 11.6094 17.9486 11.7566 17.9635 11.9144C18.1163 13.5412 18.2984 15.0732 18.8362 15.9337L18.8406 15.9411C19.057 16.3304 19.3834 16.6162 19.699 16.8925C20.4323 17.5355 20.8695 18.0377 20.289 19.1156Z" fill="#xxx" stroke="#xxx" stroke-width="0.5"/>
</svg>
