<svg width="24" height="24" viewBox="0 0 24 24" fill="none" xmlns="http://www.w3.org/2000/svg">
<path d="M19.3558 13.0539H11.1912V4.88937C11.1912 4.55944 10.9273 4.2955 10.5974 4.2955C5.44175 4.2955 1.24512 8.49214 1.24512 13.6478C1.24512 18.8034 5.44175 23 10.5974 23C15.753 23 19.9496 18.8034 19.9496 13.6478C19.9496 13.3222 19.6813 13.0539 19.3558 13.0539ZM10.5974 21.8123C6.0972 21.8123 2.43284 18.1479 2.43284 13.6478C2.43284 9.34554 5.77607 5.80875 10.0035 5.50522V13.6478C10.0035 13.9777 10.2674 14.2416 10.5974 14.2416H18.7399C18.4364 18.469 14.8996 21.8123 10.5974 21.8123Z" fill="#xxx"/>
<path d="M23.2409 10.3215C23.2321 8.05158 22.4007 5.86528 20.9006 4.16287C19.1234 2.15253 16.572 1 13.8886 1C13.5587 1 13.2948 1.26394 13.2948 1.59386V10.3522C13.2948 10.6822 13.5587 10.9461 13.8886 10.9461H22.647C22.977 10.9461 23.2409 10.6822 23.2409 10.3522C23.2409 10.3435 23.2409 10.3347 23.2409 10.3215ZM14.4825 9.76278V2.21412C16.6028 2.36809 18.5912 3.34906 20.0076 4.95469C21.1954 6.29638 21.8992 7.98559 22.0312 9.76278H14.4825Z" fill="#xxx"/>
<path fill-rule="evenodd" clip-rule="evenodd" d="M13.0448 1.59386C13.0448 1.12587 13.4207 0.75 13.8886 0.75C16.6438 0.75 19.2634 1.9334 21.0879 3.99729C22.628 5.74507 23.4819 7.99004 23.4909 10.3205L23.4909 10.3215V10.3516C23.4909 10.8196 23.115 11.1961 22.647 11.1961H13.8886C13.4207 11.1961 13.0448 10.8202 13.0448 10.3522V1.59386ZM13.8886 1.25C13.6968 1.25 13.5448 1.40201 13.5448 1.59386V10.3522C13.5448 10.5441 13.6968 10.6961 13.8886 10.6961H22.647C22.8389 10.6961 22.9909 10.5441 22.9909 10.3522V10.3234L22.9909 10.3224C22.9822 8.11329 22.173 5.98506 20.7131 4.32815C18.9832 2.37156 16.5001 1.25 13.8886 1.25ZM14.2325 1.94531L14.5006 1.96478C16.6861 2.12347 18.7353 3.13452 20.1951 4.7893C21.4194 6.1724 22.1445 7.91336 22.2805 9.74427L22.3004 10.0128H14.2325V1.94531ZM14.7325 2.48755V9.51278H21.7574C21.5815 7.88834 20.9115 6.35292 19.8204 5.1204C18.5072 3.6318 16.6866 2.69678 14.7325 2.48755ZM0.995117 13.6478C0.995117 8.35407 5.30368 4.0455 10.5974 4.0455C11.0654 4.0455 11.4412 4.42137 11.4412 4.88937V12.8039H19.3558C19.8193 12.8039 20.1996 13.1842 20.1996 13.6478C20.1996 18.9414 15.8911 23.25 10.5974 23.25C5.30368 23.25 0.995117 18.9414 0.995117 13.6478ZM10.5974 4.5455C5.57982 4.5455 1.49512 8.63021 1.49512 13.6478C1.49512 18.6653 5.57982 22.75 10.5974 22.75C15.6149 22.75 19.6996 18.6653 19.6996 13.6478C19.6996 13.4603 19.5432 13.3039 19.3558 13.3039H10.9412V4.88937C10.9412 4.69751 10.7892 4.5455 10.5974 4.5455ZM10.2535 5.23663V13.6478C10.2535 13.8396 10.4055 13.9916 10.5974 13.9916H19.0085L18.9893 14.2595C18.6764 18.6168 15.0316 22.0623 10.5974 22.0623C5.95913 22.0623 2.18284 18.286 2.18284 13.6478C2.18284 9.21352 5.62828 5.56872 9.9856 5.25587L10.2535 5.23663ZM9.7535 5.77839C5.78349 6.1993 2.68284 9.56887 2.68284 13.6478C2.68284 18.0098 6.23527 21.5623 10.5974 21.5623C14.6762 21.5623 18.0458 18.4616 18.4667 14.4916H10.5974C10.1294 14.4916 9.7535 14.1157 9.7535 13.6478V5.77839Z" fill="#xxx"/>
</svg>
