<svg width="19" height="24" viewBox="0 0 19 24" fill="none" xmlns="http://www.w3.org/2000/svg">
<path d="M17.3721 6.71864H3.97274C2.73113 6.71864 1.7161 5.70814 1.7161 4.462C1.7161 3.22039 2.7266 2.20536 3.97274 2.20536H17.3767C17.712 2.20536 17.9793 1.93347 17.9793 1.60268C17.9793 1.26735 17.7074 1 17.3767 1H3.97274C2.06502 1 0.510742 2.55427 0.510742 4.462V19.538C0.510742 21.4457 2.06502 23 3.97274 23H17.3767C17.712 23 17.9793 22.7281 17.9793 22.3973V7.32132C17.9748 6.99053 17.7074 6.71864 17.3721 6.71864ZM16.7694 21.7946H3.97274C2.73113 21.7946 1.7161 20.7841 1.7161 19.538V7.09022C2.32331 7.61133 3.11177 7.92853 3.97274 7.92853H16.7694V21.7946Z" fill="#xxx" stroke="#xxx" stroke-width="0.5"/>
<path d="M4.16322 3.91382C3.8279 3.91382 3.56055 4.1857 3.56055 4.5165C3.56055 4.84729 3.83243 5.11917 4.16322 5.11917H15.4827C15.818 5.11917 16.0854 4.84729 16.0854 4.5165C16.0854 4.1857 15.8135 3.91382 15.4827 3.91382H4.16322Z" fill="#xxx" stroke="#xxx" stroke-width="0.5"/>
<path d="M6.28322 19.1573C6.35119 19.18 6.41916 19.1936 6.48713 19.1936C6.73636 19.1936 6.96746 19.0395 7.05356 18.7948L7.78765 16.7421H10.6153C10.6379 16.7421 10.6651 16.7421 10.6878 16.7375L11.4218 18.7948C11.5079 19.0395 11.7436 19.1936 11.9883 19.1936C12.0562 19.1936 12.1242 19.18 12.1922 19.1573C12.5048 19.044 12.668 18.6996 12.5547 18.387L9.80866 10.6881C9.80413 10.67 9.79506 10.6518 9.786 10.6337C9.78147 10.6247 9.77694 10.6156 9.77241 10.6065C9.76788 10.5975 9.76335 10.5884 9.75881 10.5793C9.75428 10.5703 9.74522 10.5612 9.74069 10.5476C9.73616 10.5431 9.73162 10.534 9.72709 10.5295C9.72256 10.5204 9.7135 10.5114 9.70444 10.5023C9.6999 10.4978 9.69537 10.4887 9.68631 10.4842C9.68178 10.4751 9.67272 10.4706 9.66365 10.4615C9.65459 10.4525 9.65006 10.4479 9.641 10.4389C9.63647 10.4343 9.6274 10.4298 9.62287 10.4207C9.61381 10.4117 9.60475 10.4072 9.59568 10.3981C9.59115 10.3936 9.58209 10.389 9.57756 10.3845C9.56849 10.38 9.55943 10.3709 9.55037 10.3664C9.54131 10.3618 9.53224 10.3573 9.52318 10.3528C9.51412 10.3482 9.50505 10.3437 9.49599 10.3392C9.47787 10.3301 9.45974 10.3211 9.44161 10.3165H9.43708C9.41896 10.312 9.40083 10.3075 9.38271 10.3029C9.37364 10.3029 9.36911 10.2984 9.36005 10.2984C9.34646 10.2939 9.33739 10.2939 9.3238 10.2893C9.31474 10.2893 9.30567 10.2893 9.29661 10.2848C9.28755 10.2848 9.27395 10.2803 9.26489 10.2803C9.25583 10.2803 9.24676 10.2803 9.2377 10.2803C9.22864 10.2803 9.21958 10.2803 9.20598 10.2803C9.19692 10.2803 9.18332 10.2803 9.17426 10.2848C9.1652 10.2848 9.15614 10.2848 9.14707 10.2893C9.13348 10.2893 9.12442 10.2939 9.11082 10.2984C9.10176 10.2984 9.09723 10.3029 9.08816 10.3029C9.07004 10.3075 9.05191 10.312 9.03832 10.3165H9.03379C9.01566 10.3211 8.99754 10.3301 8.97941 10.3392C8.97035 10.3437 8.96129 10.3482 8.95222 10.3528C8.94316 10.3573 8.9341 10.3618 8.92503 10.3664C8.91597 10.3709 8.90691 10.38 8.89331 10.3845C8.88878 10.389 8.87972 10.3936 8.87519 10.3981C8.86613 10.4072 8.85706 10.4117 8.848 10.4207C8.84347 10.4253 8.83441 10.4298 8.82987 10.4389C8.82081 10.4479 8.81628 10.4525 8.80722 10.4615C8.79815 10.4706 8.79362 10.4751 8.78456 10.4842C8.78003 10.4887 8.7755 10.4978 8.76643 10.5023C8.75737 10.5114 8.75284 10.5204 8.74378 10.5295C8.73925 10.534 8.73471 10.5431 8.73018 10.5476C8.72565 10.5567 8.71659 10.5658 8.71206 10.5748C8.70753 10.5839 8.70299 10.5929 8.69846 10.602C8.69393 10.6111 8.6894 10.6201 8.68487 10.6292C8.67581 10.6473 8.66674 10.6654 8.66221 10.6836L5.90711 18.3824C5.80742 18.6996 5.97055 19.044 6.28322 19.1573ZM9.24223 12.6819L10.2618 15.5367H8.21813L9.24223 12.6819Z" fill="#xxx" stroke="#xxx" stroke-width="0.5"/>
</svg>
