<svg width="25" height="20" viewBox="0 0 25 20" fill="none" xmlns="http://www.w3.org/2000/svg">
<path d="M21.6667 5.9171V0.833333C21.6667 0.373047 21.2936 0 20.8333 0C20.373 0 20 0.373047 20 0.833333V1.8316L5.74175 5H0.833333C0.373047 5 0 5.37305 0 5.83333V14.1667C0 14.627 0.373047 15 0.833333 15H5.74175L6.66667 15.2055V15.8333C6.66667 18.1309 8.53581 20 10.8333 20C12.7142 20 14.3162 18.75 14.8283 17.0193L20 18.1684V19.1667C20 19.627 20.373 20 20.8333 20C21.2936 20 21.6667 19.627 21.6667 19.1667V14.0829C23.5662 13.6957 25 12.0122 25 10C25 7.98785 23.5662 6.30425 21.6667 5.9171ZM1.66667 6.66667H5V13.3333H1.66667V6.66667ZM10.8333 18.3333C9.45486 18.3333 8.33333 17.2118 8.33333 15.8333V15.576L13.1947 16.6562C12.8537 17.6365 11.9214 18.3333 10.8333 18.3333ZM6.66667 13.4983V6.50174L20 3.53885V16.4612C19.1764 16.2782 7.12044 13.599 6.66667 13.4983ZM21.6667 12.3568V7.64323C22.6367 7.98741 23.3333 8.91363 23.3333 10C23.3333 11.0864 22.6367 12.0126 21.6667 12.3568Z" fill="#xxx"/>
</svg>
