<svg width="18" height="23" viewBox="0 0 18 23" fill="none" xmlns="http://www.w3.org/2000/svg">
<path d="M17.0481 21.6006C16.0489 19.5252 14.2505 17.8947 12.0705 17.0727V15.7602C13.1423 15.7012 15.1633 15.4287 16.3487 14.2161C16.4985 14.0617 16.5576 13.8391 16.5031 13.6302C16.4486 13.4213 16.2851 13.2578 16.0762 13.1988C16.058 13.1942 14.4957 12.6583 14.8091 9.46105C14.9453 8.09859 14.9226 6.87236 14.7455 5.81872C14.5411 4.61067 14.1324 3.66148 13.5374 2.99841C12.8925 2.28539 12.0523 1.92206 11.0396 1.92206C10.9987 1.92206 10.9578 1.92206 10.9215 1.92206C10.5355 1.58599 9.69074 1.01829 8.39639 1.01829C7.79237 1.01829 7.16109 1.14091 6.51619 1.3907L6.48894 1.39978C5.98028 1.59053 5.03564 1.94931 4.23632 3.01204C3.3053 4.24734 2.86023 6.07759 2.91473 8.44829C2.96923 10.8235 2.57865 11.9862 2.24258 12.5448C1.96554 13.0035 1.70213 13.0943 1.63401 13.1125C1.40239 13.0943 1.21619 13.2124 1.0981 13.4122C0.975483 13.6166 1.0209 13.8755 1.15715 14.0753C1.21164 14.157 1.52955 14.5839 2.29708 14.9972C3.1736 15.4695 4.26811 15.7375 5.56246 15.792V17.0409C3.40976 17.8584 1.62038 19.5024 0.607616 21.6052C0.516785 21.7959 0.53041 22.0185 0.639407 22.1956C0.752946 22.3727 0.948233 22.4817 1.15715 22.4817H16.4985C16.7074 22.4817 16.9073 22.3727 17.0163 22.1956C17.1253 22.0139 17.1389 21.7914 17.0481 21.6006ZM2.2017 21.2509C3.18268 19.7431 4.65415 18.6032 6.35723 18.0537C6.61156 17.9719 6.78414 17.7358 6.78414 17.4724V15.188C6.78414 15.0245 6.72056 14.8655 6.60248 14.752C6.4844 14.6384 6.32998 14.5703 6.16649 14.5749C4.39982 14.593 3.33255 14.1888 2.75123 13.8437C2.79211 13.8028 2.83752 13.7619 2.88294 13.7165C3.77763 12.7855 4.19999 11.0052 4.14095 8.42104C4.02287 3.64786 6.05295 2.87579 6.91584 2.5488L6.94309 2.53972C7.45175 2.34897 7.9377 2.24906 8.38731 2.24906C9.55903 2.24906 10.1585 2.89396 10.2085 2.953C10.3356 3.11195 10.5309 3.18916 10.7353 3.17099C10.8352 3.16191 10.9351 3.15737 11.0305 3.15737C11.689 3.15737 12.2113 3.37536 12.62 3.82952C13.4829 4.78325 13.8372 6.79516 13.5829 9.34752C13.3285 11.9226 14.1324 13.2124 14.8272 13.8391C13.8917 14.3569 12.561 14.5521 11.5573 14.5521C11.5028 14.5521 11.471 14.5521 11.4665 14.5521C11.303 14.5476 11.1395 14.6112 11.0214 14.7247C10.9033 14.8383 10.8352 14.9972 10.8352 15.1653V17.5132C10.8352 17.7812 11.0078 18.0128 11.2621 18.0946C12.9879 18.6532 14.4639 19.7795 15.4404 21.26H2.2017V21.2509Z" fill="#xxx"/>
<path fill-rule="evenodd" clip-rule="evenodd" d="M6.42533 1.13818C7.09564 0.879313 7.75765 0.75 8.39639 0.75C9.69419 0.75 10.5723 1.28701 11.0196 1.65377H11.0386C12.123 1.65377 13.0379 2.04615 13.7364 2.81845C14.3754 3.53062 14.8002 4.53337 15.01 5.77397C15.192 6.85631 15.2141 8.10734 15.0761 9.48743C14.9238 11.041 15.2305 11.9085 15.542 12.3791C15.8071 12.7795 16.0879 12.9115 16.1388 12.9354C16.1485 12.94 16.1499 12.9406 16.1413 12.9385L16.1492 12.9405C16.4472 13.0247 16.6835 13.259 16.7627 13.5625C16.8409 13.8624 16.7562 14.1814 16.5412 14.4029C15.9038 15.055 15.0527 15.4445 14.2414 15.6785C13.5459 15.8791 12.8641 15.9701 12.3388 16.0112V16.8891C14.5037 17.7548 16.2868 19.4008 17.2898 21.4843L17.2903 21.4853C17.4211 21.7599 17.4 22.0775 17.2463 22.3336L17.2448 22.3362C17.0856 22.5948 16.798 22.75 16.4985 22.75H1.15714C0.854531 22.75 0.575161 22.5925 0.413537 22.3404L0.410874 22.3362C0.254669 22.0824 0.235061 21.7635 0.365385 21.4898L0.365899 21.4888C1.38098 19.3812 3.15401 17.721 5.29417 16.8578V16.0463C4.07999 15.9675 3.03071 15.6973 2.16981 15.2334C1.36377 14.7994 1.01345 14.343 0.934707 14.2253C0.761478 13.9705 0.674886 13.5969 0.867582 13.2749C1.01854 13.02 1.27186 12.8393 1.59478 12.8423C1.61802 12.8322 1.65364 12.8134 1.69826 12.7797C1.77707 12.7202 1.89002 12.6095 2.01288 12.4061C2.31241 11.9081 2.70039 10.803 2.64651 8.45444C2.59132 6.054 3.03979 4.15401 4.02191 2.85077M6.42533 1.13818L6.40409 1.14526L6.39473 1.14857C5.87443 1.34369 4.86892 1.72466 4.02191 2.85077M8.39639 1.28659C7.829 1.28659 7.23051 1.40174 6.61309 1.64088L6.60113 1.64552L6.57849 1.65274C6.08065 1.83947 5.20002 2.17711 4.45074 3.17331C3.57092 4.34067 3.12914 6.1013 3.18295 8.44212C3.23805 10.8436 2.84506 12.0638 2.47247 12.6831C2.1601 13.2003 1.83939 13.3354 1.70314 13.3717L1.65879 13.3835L1.61303 13.3799C1.50179 13.3712 1.40509 13.4201 1.32908 13.5487L1.32816 13.5502C1.2765 13.6363 1.2802 13.7795 1.37882 13.9241L1.38039 13.9264C1.41222 13.9742 1.69806 14.37 2.42427 14.761C3.25624 15.2093 4.30864 15.4707 5.57374 15.5239L5.83075 15.5348V17.226L5.6577 17.2917C3.57003 18.0845 1.83291 19.6799 0.849636 21.721C0.798886 21.8279 0.806091 21.9529 0.866616 22.0529C0.93224 22.1537 1.04271 22.2134 1.15714 22.2134H16.4985C16.6163 22.2134 16.7279 22.1512 16.787 22.0563C16.8505 21.9495 16.8565 21.8229 16.8061 21.7165C15.8374 19.7047 14.0925 18.1219 11.9759 17.3237L11.8022 17.2583V15.5063L12.0558 15.4923C12.5801 15.4634 13.3315 15.3824 14.0927 15.1629C14.856 14.9428 15.6086 14.5892 16.1565 14.0288C16.2409 13.9416 16.2742 13.8157 16.2435 13.6979C16.2136 13.5836 16.123 13.4908 16.0032 13.4569C15.9106 13.4297 15.4741 13.2485 15.0946 12.6753C14.6988 12.0775 14.381 11.0785 14.5421 9.43488C14.6765 8.09016 14.6532 6.88806 14.4809 5.8632C14.2821 4.68802 13.8887 3.7918 13.338 3.17789C12.7468 2.52446 11.9805 2.19036 11.0396 2.19036H10.8211L10.7453 2.12442C10.3916 1.81648 9.607 1.28659 8.39639 1.28659ZM8.38731 2.51735C7.97682 2.51735 7.52311 2.60874 7.0373 2.79093L7.02799 2.79441L7.00584 2.8016C6.58419 2.96141 5.92792 3.2143 5.37793 3.97482C4.82302 4.74215 4.35101 6.06378 4.40916 8.4144C4.46599 10.902 4.08461 12.7333 3.1929 13.774C3.77713 14.0489 4.72369 14.3211 6.16161 14.3066C6.40526 14.3006 6.62619 14.4026 6.78843 14.5586C6.9623 14.7258 7.05243 14.956 7.05243 15.188V17.4724C7.05243 17.8535 6.80354 18.1919 6.43962 18.309C4.95254 18.7888 3.64687 19.7359 2.70943 20.9917H14.9211C13.9878 19.7674 12.6819 18.8361 11.1795 18.3498C10.8168 18.233 10.5669 17.9 10.5669 17.5132V15.1653C10.5669 14.9247 10.6644 14.6958 10.8355 14.5313C11.0041 14.3692 11.2354 14.2785 11.4699 14.2839L11.4739 14.284L11.4665 14.5521L11.4665 14.2839H11.4699H11.5564C12.4238 14.2839 13.5239 14.1333 14.3745 13.7628C14.4651 13.8649 14.5567 13.9564 14.6475 14.0383L14.8272 13.8391L14.6973 13.6044C14.5948 13.6611 14.4868 13.7139 14.3745 13.7628C13.7005 13.0028 13.0853 11.6555 13.3159 9.32115C13.4413 8.06257 13.4155 6.94663 13.2561 6.03526C13.0959 5.11929 12.805 4.43386 12.4211 4.00952C12.0684 3.61761 11.621 3.42566 11.0305 3.42566C10.9435 3.42566 10.8516 3.42981 10.7596 3.43818C10.4739 3.46358 10.1897 3.35597 10.0025 3.12495L10.0036 3.12628L10.2085 2.953L9.99897 3.1206L10.0025 3.12495C10.0025 3.12495 9.99929 3.12139 9.99635 3.11823C9.99136 3.11287 9.98423 3.10544 9.97495 3.09623C9.95639 3.07781 9.92963 3.05269 9.89465 3.02319C9.82465 2.96416 9.72248 2.88821 9.58796 2.81325C9.32003 2.66396 8.92178 2.51735 8.38731 2.51735ZM2.69136 13.5286C3.50449 12.6806 3.93148 11.0003 3.87273 8.42744C3.81284 6.00502 4.29682 4.55409 4.94313 3.66038C5.59157 2.76372 6.37785 2.46576 6.81953 2.29838L6.83093 2.29407L6.85359 2.28674C7.38344 2.08856 7.90001 1.98076 8.38731 1.98076C9.66481 1.98076 10.3327 2.68448 10.4133 2.7797L10.4181 2.78533C10.4852 2.86922 10.5903 2.91453 10.7115 2.90375C10.8193 2.89396 10.9268 2.88908 11.0305 2.88908C11.7569 2.88908 12.3545 3.13356 12.8192 3.64978C13.2981 4.17917 13.6157 4.97645 13.7847 5.94281C13.9545 6.91385 13.9787 8.0802 13.8498 9.37389C13.6027 11.8759 14.3837 13.0777 15.0069 13.6399L15.2862 13.8918L14.9571 14.0739C13.9652 14.6228 12.5827 14.8204 11.5573 14.8204H11.459C11.3679 14.8179 11.2739 14.8541 11.2074 14.9181C11.1423 14.9807 11.1035 15.0697 11.1035 15.1653V17.5132C11.1035 17.6622 11.1985 17.7923 11.3442 17.8391C13.1276 18.4164 14.6541 19.5806 15.6643 21.1123L15.9387 21.5283H1.93341V21.1714L1.97682 21.1046C2.99062 19.5464 4.51186 18.3672 6.27484 17.7984C6.41942 17.7519 6.51585 17.618 6.51585 17.4724V15.188C6.51585 15.0929 6.47881 15.0053 6.41652 14.9454C6.34317 14.8748 6.25626 14.8408 6.17394 14.843L6.16924 14.8432C4.35904 14.8618 3.2424 14.4473 2.61426 14.0744L2.31738 13.8981L2.56152 13.6539C2.58397 13.6315 2.60723 13.6094 2.62806 13.5897L2.63073 13.5871C2.6524 13.5666 2.67209 13.5479 2.69136 13.5286Z" fill="#xxx"/>
</svg>
