<svg width="22" height="23" viewBox="0 0 22 23" fill="none" xmlns="http://www.w3.org/2000/svg">
<path d="M11 0.75C7.24167 0.75 3.85 2.67502 1.83335 5.7V2.58333C1.83335 2.07706 1.42294 1.66665 0.916674 1.66665C0.410409 1.66665 0 2.07706 0 2.58333V9H3.41667C3.92294 9 4.33335 8.58959 4.33335 8.08333C4.33335 7.57706 3.92294 7.16665 3.41667 7.16665H3.11665C4.76665 4.32498 7.7 2.58335 11 2.58335C16.0417 2.58335 20.1667 6.70833 20.1667 11.75C20.1667 16.7917 16.0417 20.9167 11 20.9167C6.6 20.9167 2.75 17.8 2.0167 13.4C1.92502 12.9416 1.4667 12.575 0.916695 12.6667C0.458369 12.7583 0.0917167 13.2167 0.18339 13.7667C1.1 18.9917 5.68335 22.75 11 22.75C17.05 22.75 22 17.8 22 11.75C22 5.7 17.05 0.75 11 0.75Z" fill="#xxx"/>
</svg>
