<svg width="24" height="22" viewBox="0 0 24 22" fill="none" xmlns="http://www.w3.org/2000/svg">
<path d="M9.14841 15.3455C8.88738 15.1497 8.52193 15.2019 8.32616 15.4629C7.34729 16.7594 5.85507 17.5033 4.23232 17.5033H1.56393C1.23764 17.5033 0.976608 17.7644 0.976608 18.0907C0.976608 18.4169 1.23764 18.678 1.56393 18.678H4.23667C5.24164 18.678 6.20311 18.4474 7.09061 17.9949C7.93896 17.5642 8.6916 16.9334 9.26587 16.1677C9.45729 15.911 9.40944 15.5412 9.14841 15.3455Z" fill="#xxx"/>
<path fill-rule="evenodd" clip-rule="evenodd" d="M8.13081 15.3164C8.4075 14.9475 8.926 14.8734 9.29492 15.1501C9.66563 15.4281 9.73201 15.9511 9.46162 16.3137C8.86492 17.1093 8.08292 17.765 7.20134 18.2126C6.27933 18.6826 5.27989 18.9222 4.23667 18.9222H1.56393C1.10278 18.9222 0.732422 18.5518 0.732422 18.0907C0.732422 17.6295 1.10278 17.2591 1.56393 17.2591H4.23232C5.77835 17.2591 7.19801 16.5519 8.13081 15.3164ZM9.0019 15.5408C8.84875 15.426 8.63637 15.4563 8.52151 15.6094C7.49658 16.9669 5.93178 17.7475 4.23232 17.7475H1.56393C1.3725 17.7475 1.22079 17.8992 1.22079 18.0907C1.22079 18.2821 1.3725 18.4338 1.56393 18.4338H4.23667C5.20332 18.4338 6.12676 18.2122 6.97971 17.7774C7.79462 17.3637 8.51849 16.7571 9.07025 16.0216C9.18256 15.8708 9.15319 15.6543 9.0019 15.5408Z" fill="#xxx"/>
<path d="M12.7596 7.08818C12.8683 7.17084 12.9945 7.20999 13.1207 7.20999C13.2947 7.20999 13.4687 7.13168 13.5862 6.98376C14.565 5.72211 16.0399 4.99993 17.6322 4.99993H21.0473L19.2245 6.82279C18.9939 7.05337 18.9939 7.42317 19.2245 7.65374C19.3376 7.76686 19.4898 7.82776 19.6378 7.82776C19.7857 7.82776 19.9379 7.77121 20.0511 7.65374L22.8789 4.82591C23.1095 4.59533 23.1095 4.22553 22.8789 3.99496L20.0511 1.16712C19.8205 0.936541 19.4507 0.936541 19.2201 1.16712C18.9895 1.3977 18.9895 1.76749 19.2201 1.99807L21.043 3.82094H17.6278C15.6701 3.82094 13.8559 4.70844 12.6508 6.26158C12.4594 6.52261 12.5029 6.88805 12.7596 7.08818Z" fill="#xxx"/>
<path fill-rule="evenodd" clip-rule="evenodd" d="M19.0474 0.994454C19.3734 0.668515 19.8978 0.668515 20.2237 0.994454L23.0516 3.82229C23.3775 4.14823 23.3775 4.67263 23.0516 4.99857L20.2252 7.82494C20.0626 7.99272 19.8459 8.07195 19.6378 8.07195C19.4247 8.07195 19.2104 7.98507 19.0518 7.82641C18.7259 7.50047 18.7259 6.97607 19.0518 6.65013L20.4578 5.24411H17.6322C16.1154 5.24411 14.7118 5.93134 13.7791 7.13345L13.7774 7.13563C13.6124 7.3434 13.3672 7.45418 13.1207 7.45418C12.9432 7.45418 12.7647 7.39875 12.6118 7.28259L12.6094 7.28076C12.2447 6.99643 12.1873 6.4807 12.4539 6.11717L12.4578 6.11183C13.7091 4.49914 15.5946 3.57675 17.6278 3.57675H20.4535L19.0474 2.17073C18.7215 1.8448 18.7215 1.32039 19.0474 0.994454ZM19.8784 1.33978C19.7432 1.20457 19.528 1.20457 19.3928 1.33978C19.2576 1.475 19.2576 1.69019 19.3928 1.8254L21.6325 4.06512H17.6278C15.7468 4.06512 14.0049 4.91657 12.846 6.40835C12.7321 6.56624 12.7616 6.77913 12.9085 6.89468C12.9729 6.94321 13.0463 6.96581 13.1207 6.96581C13.2218 6.96581 13.3243 6.9203 13.3942 6.83284C14.4193 5.51241 15.9648 4.75574 17.6322 4.75574H21.6368L19.3971 6.99546C19.2619 7.13068 19.2619 7.34586 19.3971 7.48108C19.4647 7.54865 19.555 7.58358 19.6378 7.58358C19.7247 7.58358 19.8117 7.55027 19.8752 7.48437L19.8784 7.48105L22.7062 4.65324C22.8414 4.51802 22.8414 4.30284 22.7062 4.16762L19.8784 1.33978Z" fill="#xxx"/>
<path d="M19.0784 14.8495C18.8479 14.6189 18.4781 14.6189 18.2475 14.8495C18.0169 15.0801 18.0169 15.4499 18.2475 15.6805L20.0704 17.5033H16.6552C13.8317 17.5033 11.5346 15.2063 11.5346 12.3828V10.1205C11.5346 6.64878 8.71114 3.82529 5.23943 3.82529H1.58994C1.26365 3.82529 1.00262 4.08632 1.00262 4.41261C1.00262 4.7389 1.26365 4.99993 1.58994 4.99993H5.23943C8.06292 4.99993 10.36 7.297 10.36 10.1205V12.3828C10.36 15.8545 13.1835 18.678 16.6552 18.678H20.0704L18.2475 20.5008C18.0169 20.7314 18.0169 21.1012 18.2475 21.3318C18.3606 21.4449 18.5129 21.5058 18.6608 21.5058C18.8087 21.5058 18.961 21.4493 19.0741 21.3318L21.9019 18.504C22.1325 18.2734 22.1325 17.9036 21.9019 17.673L19.0784 14.8495Z" fill="#xxx"/>
<path fill-rule="evenodd" clip-rule="evenodd" d="M0.758434 4.41261C0.758434 3.95146 1.12879 3.5811 1.58994 3.5811H5.23943C8.846 3.5811 11.7788 6.51392 11.7788 10.1205V12.3828C11.7788 15.0714 13.9666 17.2591 16.6552 17.2591H19.4808L18.0748 15.8531C17.7489 15.5272 17.7489 15.0028 18.0748 14.6768C18.4008 14.3509 18.9252 14.3509 19.2511 14.6768L22.0746 17.5003C22.4005 17.8263 22.4005 18.3507 22.0746 18.6766L19.2482 21.503C19.0857 21.6708 18.8689 21.75 18.6608 21.75C18.4478 21.75 18.2335 21.6631 18.0748 21.5045C17.7489 21.1785 17.7489 20.6541 18.0748 20.3282L19.4808 18.9222H16.6552C13.0486 18.9222 10.1158 15.9893 10.1158 12.3828V10.1205C10.1158 7.43186 7.92806 5.24411 5.23943 5.24411H1.58994C1.12879 5.24411 0.758434 4.87376 0.758434 4.41261ZM1.58994 4.06947C1.39851 4.06947 1.24681 4.22118 1.24681 4.41261C1.24681 4.60404 1.39851 4.75574 1.58994 4.75574H5.23943C8.19778 4.75574 10.6042 7.16214 10.6042 10.1205V12.3828C10.6042 15.7196 13.3183 18.4338 16.6552 18.4338H20.6599L18.4202 20.6735C18.2849 20.8087 18.2849 21.0239 18.4202 21.1591C18.4877 21.2267 18.578 21.2616 18.6608 21.2616C18.7477 21.2616 18.8347 21.2283 18.8982 21.1624L18.9014 21.1591L21.7293 18.3313C21.8645 18.1961 21.8645 17.9809 21.7293 17.8457L18.9058 15.0222C18.7706 14.887 18.5554 14.887 18.4202 15.0222C18.2849 15.1574 18.2849 15.3726 18.4202 15.5078L20.6599 17.7475H16.6552C13.6968 17.7475 11.2904 15.3411 11.2904 12.3828V10.1205C11.2904 6.78364 8.57628 4.06947 5.23943 4.06947H1.58994Z" fill="#xxx"/>
</svg>
