<svg width="22" height="24" viewBox="0 0 22 24" fill="none" xmlns="http://www.w3.org/2000/svg">
    <path d="M21.2448 6.18658C21.2448 6.103 21.2263 6.01942 21.1891 5.94048C21.1148 5.78261 20.9709 5.67581 20.813 5.64331L11.3546 1.05572C11.2014 0.981427 11.0203 0.981427 10.867 1.05572L1.31575 5.6851C1.13001 5.77332 1.00929 5.95905 1 6.168V6.17265C1 6.17729 1 6.18193 1 6.19122V17.8088C1 18.0224 1.12073 18.2174 1.31575 18.3103L10.867 22.9396C10.8717 22.9396 10.8717 22.9396 10.8763 22.9443C10.8902 22.9489 10.9042 22.9536 10.9181 22.9629C10.9228 22.9629 10.9274 22.9675 10.9367 22.9675C10.9506 22.9721 10.9645 22.9768 10.9785 22.9814C10.9831 22.9814 10.9878 22.9861 10.9924 22.9861C11.0063 22.9907 11.0249 22.9907 11.0388 22.9954C11.0435 22.9954 11.0481 22.9954 11.0528 22.9954C11.0713 22.9954 11.0946 23 11.1131 23C11.1317 23 11.1549 23 11.1735 22.9954C11.1781 22.9954 11.1828 22.9954 11.1874 22.9954C11.2014 22.9954 11.2199 22.9907 11.2339 22.9861C11.2385 22.9861 11.2431 22.9814 11.2478 22.9814C11.2617 22.9768 11.2756 22.9721 11.2896 22.9675C11.2942 22.9675 11.2989 22.9629 11.3081 22.9629C11.3221 22.9582 11.336 22.9536 11.3499 22.9443C11.3546 22.9443 11.3546 22.9443 11.3592 22.9396L20.9384 18.2963C21.1287 18.2035 21.2541 18.0084 21.2541 17.7949V6.20051C21.2448 6.19586 21.2448 6.19122 21.2448 6.18658ZM11.1085 2.17476L19.3921 6.19122L16.3415 7.67244L8.05783 3.65597L11.1085 2.17476ZM11.1085 10.2077L2.82482 6.19122L6.78092 4.27353L15.0646 8.29L11.1085 10.2077ZM2.11439 7.08738L10.5513 11.1781V21.5466L2.11439 17.4559V7.08738ZM11.6657 21.5466V11.1781L15.6264 9.2558V11.9675C15.6264 12.274 15.8772 12.5247 16.1836 12.5247C16.4901 12.5247 16.7408 12.274 16.7408 11.9675V8.71254L20.1304 7.06881V17.4373L11.6657 21.5466Z"
          fill="#xxx" stroke="#xxx" stroke-width="0.6"/>
</svg>
