<svg width="23" height="24" viewBox="0 0 23 24" fill="none" xmlns="http://www.w3.org/2000/svg">
<path d="M11.8579 11.7229V1.61836C11.8579 1.27483 11.5831 1 11.2395 1C10.896 1 10.6212 1.27483 10.6212 1.61836V11.7229C9.18748 12.0115 8.1019 13.2802 8.1019 14.801C8.1019 16.3217 9.18748 17.5905 10.6212 17.879V22.3771C10.6212 22.7206 10.896 22.9954 11.2395 22.9954C11.5831 22.9954 11.8579 22.7206 11.8579 22.3771V17.879C13.2916 17.5905 14.3771 16.3217 14.3771 14.801C14.3771 13.2848 13.2962 12.0115 11.8579 11.7229ZM11.2395 16.7019C10.1906 16.7019 9.33863 15.8499 9.33863 14.801C9.33863 13.752 10.1906 12.9001 11.2395 12.9001C12.2885 12.9001 13.1404 13.752 13.1404 14.801C13.1404 15.8499 12.2885 16.7019 11.2395 16.7019Z" fill="#xxx"/>
<path d="M4.28626 6.53779V1.61836C4.28626 1.27483 4.01143 1 3.6679 1C3.32436 1 3.04953 1.27483 3.04953 1.61836V6.53779C1.61584 6.82636 0.530273 8.09515 0.530273 9.61587C0.530273 11.1366 1.61584 12.4054 3.04953 12.6939V22.3771C3.04953 22.7206 3.32436 22.9954 3.6679 22.9954C4.01143 22.9954 4.28626 22.7206 4.28626 22.3771V12.6894C5.71995 12.4008 6.80552 11.132 6.80552 9.61129C6.80552 8.09057 5.71995 6.82636 4.28626 6.53779ZM3.6679 11.5168C2.61897 11.5168 1.767 10.6648 1.767 9.61587C1.767 8.56694 2.61897 7.71497 3.6679 7.71497C4.71682 7.71497 5.56879 8.56694 5.56879 9.61587C5.56879 10.6648 4.71224 11.5168 3.6679 11.5168Z" fill="#xxx"/>
<path d="M19.3833 6.53779V1.61836C19.3833 1.27483 19.1085 1 18.765 1C18.4214 1 18.1466 1.27483 18.1466 1.61836V6.53779C16.7129 6.82636 15.6273 8.09515 15.6273 9.61587C15.6273 11.1366 16.7129 12.4054 18.1466 12.6939V22.3816C18.1466 22.7252 18.4214 23 18.765 23C19.1085 23 19.3833 22.7252 19.3833 22.3816V12.6894C20.817 12.4008 21.9026 11.132 21.9026 9.61128C21.9026 8.09057 20.8216 6.82636 19.3833 6.53779ZM18.765 11.5168C17.716 11.5168 16.8641 10.6648 16.8641 9.61587C16.8641 8.56694 17.716 7.71497 18.765 7.71497C19.8139 7.71497 20.6659 8.56694 20.6659 9.61587C20.6659 10.6648 19.8139 11.5168 18.765 11.5168Z" fill="#xxx"/>
<path d="M11.8579 11.7229V1.61836C11.8579 1.27483 11.5831 1 11.2395 1C10.896 1 10.6212 1.27483 10.6212 1.61836V11.7229C9.18748 12.0115 8.1019 13.2802 8.1019 14.801C8.1019 16.3217 9.18748 17.5905 10.6212 17.879V22.3771C10.6212 22.7206 10.896 22.9954 11.2395 22.9954C11.5831 22.9954 11.8579 22.7206 11.8579 22.3771V17.879C13.2916 17.5905 14.3771 16.3217 14.3771 14.801C14.3771 13.2848 13.2962 12.0115 11.8579 11.7229ZM11.2395 16.7019C10.1906 16.7019 9.33863 15.8499 9.33863 14.801C9.33863 13.752 10.1906 12.9001 11.2395 12.9001C12.2885 12.9001 13.1404 13.752 13.1404 14.801C13.1404 15.8499 12.2885 16.7019 11.2395 16.7019Z" stroke="#xxx" stroke-width="0.5"/>
<path d="M4.28626 6.53779V1.61836C4.28626 1.27483 4.01143 1 3.6679 1C3.32436 1 3.04953 1.27483 3.04953 1.61836V6.53779C1.61584 6.82636 0.530273 8.09515 0.530273 9.61587C0.530273 11.1366 1.61584 12.4054 3.04953 12.6939V22.3771C3.04953 22.7206 3.32436 22.9954 3.6679 22.9954C4.01143 22.9954 4.28626 22.7206 4.28626 22.3771V12.6894C5.71995 12.4008 6.80552 11.132 6.80552 9.61129C6.80552 8.09057 5.71995 6.82636 4.28626 6.53779ZM3.6679 11.5168C2.61897 11.5168 1.767 10.6648 1.767 9.61587C1.767 8.56694 2.61897 7.71497 3.6679 7.71497C4.71682 7.71497 5.56879 8.56694 5.56879 9.61587C5.56879 10.6648 4.71224 11.5168 3.6679 11.5168Z" stroke="#xxx" stroke-width="0.5"/>
<path d="M19.3833 6.53779V1.61836C19.3833 1.27483 19.1085 1 18.765 1C18.4214 1 18.1466 1.27483 18.1466 1.61836V6.53779C16.7129 6.82636 15.6273 8.09515 15.6273 9.61587C15.6273 11.1366 16.7129 12.4054 18.1466 12.6939V22.3816C18.1466 22.7252 18.4214 23 18.765 23C19.1085 23 19.3833 22.7252 19.3833 22.3816V12.6894C20.817 12.4008 21.9026 11.132 21.9026 9.61128C21.9026 8.09057 20.8216 6.82636 19.3833 6.53779ZM18.765 11.5168C17.716 11.5168 16.8641 10.6648 16.8641 9.61587C16.8641 8.56694 17.716 7.71497 18.765 7.71497C19.8139 7.71497 20.6659 8.56694 20.6659 9.61587C20.6659 10.6648 19.8139 11.5168 18.765 11.5168Z" stroke="#xxx" stroke-width="0.5"/>
</svg>
