<svg width="23" height="22" viewBox="0 0 23 22" fill="none" xmlns="http://www.w3.org/2000/svg">
<circle cx="11.2451" cy="11" r="10.15" stroke="#xxx" stroke-width="1.7"/>
<path d="M8.40176 16.7618C8.30037 16.7618 8.2142 16.7289 8.14323 16.6631C8.0824 16.5862 8.05199 16.493 8.05199 16.3832V14.276H6.88102C6.77964 14.276 6.69346 14.2431 6.62249 14.1772C6.56166 14.1004 6.53125 14.0071 6.53125 13.8974V13.5187C6.53125 13.409 6.56166 13.3212 6.62249 13.2553C6.69346 13.1785 6.77964 13.1401 6.88102 13.1401H8.05199V12.2017H6.88102C6.77964 12.2017 6.69346 12.1688 6.62249 12.1029C6.56166 12.0261 6.53125 11.9328 6.53125 11.8231V11.2633C6.53125 11.1536 6.56166 11.0658 6.62249 10.9999C6.69346 10.9231 6.77964 10.8847 6.88102 10.8847H8.05199V5.63314C8.05199 5.51241 8.0824 5.41913 8.14323 5.35328C8.2142 5.27645 8.30037 5.23804 8.40176 5.23804H12.2644C13.4101 5.23804 14.3124 5.53985 14.9713 6.14348C15.6303 6.74711 15.9598 7.61962 15.9598 8.76103C15.9598 9.88049 15.6303 10.7365 14.9713 11.3292C14.3225 11.9109 13.4202 12.2017 12.2644 12.2017H9.57272V13.1401H12.5077C12.6091 13.1401 12.6902 13.1785 12.7511 13.2553C12.822 13.3212 12.8575 13.409 12.8575 13.5187V13.8974C12.8575 14.0071 12.822 14.1004 12.7511 14.1772C12.6902 14.2431 12.6091 14.276 12.5077 14.276H9.57272V16.3832C9.57272 16.493 9.53724 16.5862 9.46627 16.6631C9.39531 16.7289 9.30913 16.7618 9.20775 16.7618H8.40176ZM12.1884 10.8847C12.9285 10.8847 13.4861 10.7036 13.8612 10.3414C14.2465 9.97926 14.4391 9.45246 14.4391 8.76103C14.4391 8.0696 14.2515 7.5428 13.8764 7.18062C13.5013 6.80747 12.9386 6.62089 12.1884 6.62089H9.55752V10.8847H12.1884Z" fill="#xxx"/>
</svg>
