<svg width="24" height="24" viewBox="0 0 24 24" fill="none" xmlns="http://www.w3.org/2000/svg">
<path d="M22.1192 9.69062L20.575 9.42866C20.4141 8.90934 20.2073 8.4084 19.9545 7.93044L20.8645 6.65741C21.2506 6.1151 21.1908 5.37518 20.7174 4.90641L19.3479 3.53687C19.0905 3.27951 18.7504 3.13704 18.3874 3.13704C18.1024 3.13704 17.8313 3.22436 17.6015 3.38981L16.3239 4.29977C15.8275 4.03781 15.3082 3.82181 14.7705 3.66096L14.5131 2.13516C14.4028 1.47796 13.8376 1 13.1712 1H11.2363C10.57 1 10.0047 1.47796 9.89438 2.13516L9.62782 3.69772C9.11309 3.85858 8.61215 4.06998 8.13419 4.32735L6.87035 3.41738C6.64056 3.25193 6.36482 3.16461 6.07988 3.16461C5.71681 3.16461 5.37213 3.30708 5.11936 3.56445L3.74522 4.93399C3.27645 5.40276 3.21211 6.14268 3.59816 6.68498L4.51731 7.97639C4.26454 8.45895 4.06233 8.95989 3.90607 9.47921L2.38028 9.73658C1.72308 9.84688 1.24512 10.4122 1.24512 11.0785V13.0134C1.24512 13.6798 1.72308 14.245 2.38028 14.3553L3.94284 14.6219C4.10369 15.1366 4.3151 15.6376 4.57246 16.1155L3.66709 17.3748C3.28105 17.9171 3.34079 18.657 3.81416 19.1258L5.1837 20.4953C5.44106 20.7527 5.78115 20.8951 6.14422 20.8951C6.42916 20.8951 6.70031 20.8078 6.9301 20.6424L8.22151 19.7232C8.68569 19.9668 9.17284 20.1644 9.67378 20.3207L9.93114 21.8648C10.0414 22.522 10.6067 23 11.2731 23H13.2125C13.8789 23 14.4442 22.522 14.5545 21.8648L14.8165 20.3207C15.3358 20.1598 15.8367 19.953 16.3147 19.7002L17.5877 20.6102C17.8175 20.7756 18.0932 20.863 18.3782 20.863C18.7413 20.863 19.0813 20.7205 19.3387 20.4631L20.7082 19.0936C21.177 18.6248 21.2414 17.8849 20.8553 17.3426L19.9453 16.065C20.1981 15.5824 20.4095 15.0815 20.5658 14.5667L22.11 14.3094C22.7672 14.1991 23.2451 13.6338 23.2451 12.9674V11.0326C23.2543 10.3662 22.7764 9.80092 22.1192 9.69062ZM22.0135 12.9674C22.0135 13.0272 21.9721 13.0777 21.9123 13.0869L19.9821 13.4086C19.7385 13.45 19.5455 13.6292 19.4858 13.8636C19.3111 14.5392 19.0446 15.1872 18.6861 15.7892C18.562 16.0006 18.5712 16.2626 18.7137 16.4648L19.8488 18.0641C19.881 18.1101 19.8764 18.179 19.8351 18.2204L18.4655 19.5899C18.4333 19.6221 18.4012 19.6267 18.3782 19.6267C18.3506 19.6267 18.3276 19.6175 18.3092 19.6037L16.7145 18.4686C16.5169 18.3261 16.2503 18.3169 16.0389 18.441C15.4369 18.7995 14.7889 19.066 14.1133 19.2407C13.8743 19.3004 13.6951 19.498 13.6583 19.737L13.332 21.6672C13.3228 21.727 13.2723 21.7683 13.2125 21.7683H11.2777C11.218 21.7683 11.1674 21.727 11.1582 21.6672L10.8365 19.737C10.7951 19.4934 10.6159 19.3004 10.3815 19.2407C9.72433 19.0706 9.09012 18.8086 8.49726 18.4686C8.40075 18.4134 8.29045 18.3858 8.18475 18.3858C8.06066 18.3858 7.93198 18.4226 7.82627 18.5007L6.21775 19.6451C6.19477 19.6589 6.17179 19.6681 6.14882 19.6681C6.13043 19.6681 6.09367 19.6635 6.0615 19.6313L4.69195 18.2618C4.65059 18.2204 4.64599 18.156 4.67817 18.1055L5.80873 16.5199C5.9512 16.3177 5.96039 16.0512 5.8363 15.8398C5.47783 15.2423 5.20208 14.5943 5.02744 13.9187C4.9631 13.6844 4.77008 13.5051 4.5311 13.4638L2.58709 13.1329C2.52734 13.1237 2.48598 13.0731 2.48598 13.0134V11.0785C2.48598 11.0188 2.52734 10.9682 2.58709 10.9591L4.50353 10.6374C4.7471 10.596 4.94472 10.4168 5.00447 10.1778C5.17451 9.50219 5.43647 8.84959 5.79034 8.24755C5.91443 8.03614 5.90064 7.77418 5.75817 7.57656L4.61382 5.96804C4.58165 5.92208 4.58625 5.85314 4.62761 5.81178L5.99715 4.44224C6.02933 4.41007 6.0615 4.40547 6.08447 4.40547C6.11205 4.40547 6.13503 4.41466 6.15341 4.42845L7.73896 5.55901C7.94117 5.70148 8.20773 5.71068 8.41913 5.58659C9.01658 5.22812 9.66459 4.95237 10.3402 4.77773C10.5746 4.71339 10.7538 4.52037 10.7951 4.28139L11.126 2.33737C11.1352 2.27763 11.1858 2.23626 11.2455 2.23626H13.1804C13.2401 2.23626 13.2907 2.27763 13.2998 2.33737L13.6216 4.25381C13.6629 4.49739 13.8422 4.69501 14.0811 4.75475C14.7751 4.92939 15.4369 5.20054 16.0527 5.56361C16.2641 5.6877 16.5261 5.6785 16.7283 5.53604L18.3138 4.39628C18.3368 4.38249 18.3598 4.3733 18.3828 4.3733C18.4012 4.3733 18.4379 4.3779 18.4701 4.41007L19.8396 5.77961C19.881 5.82097 19.8856 5.88531 19.8534 5.93587L18.7183 7.5306C18.5758 7.72822 18.5666 7.99478 18.6907 8.20618C19.0492 8.80823 19.3157 9.45624 19.4904 10.1318C19.5501 10.3708 19.7477 10.55 19.9867 10.5868L21.9169 10.9131C21.9767 10.9223 22.018 10.9728 22.018 11.0326V12.9674H22.0135Z" fill="#xxx" stroke="#xxx" stroke-width="0.5"/>
<path d="M12.2474 7.24927C9.62785 7.24927 7.5 9.37711 7.5 11.9967C7.5 14.6163 9.62785 16.7442 12.2474 16.7442C14.867 16.7442 16.9949 14.6163 16.9949 11.9967C16.9949 9.37711 14.867 7.24927 12.2474 7.24927ZM12.2474 15.5033C10.3126 15.5033 8.74086 13.9315 8.74086 11.9967C8.74086 10.0619 10.3126 8.49013 12.2474 8.49013C14.1823 8.49013 15.754 10.0619 15.754 11.9967C15.754 13.9315 14.1823 15.5033 12.2474 15.5033Z" fill="#xxx" stroke="#xxx" stroke-width="0.5"/>
</svg>
