<svg width="60" height="60" viewBox="0 0 60 60" fill="none" xmlns="http://www.w3.org/2000/svg">
<circle cx="30" cy="30" r="30" fill="#xxx"/>
<path d="M17.3115 31.5385C17.1038 31.3308 17 31.0192 17 30.8115C17 30.6038 17.1038 30.2923 17.3115 30.0846L18.7654 28.6308C19.1808 28.2154 19.8038 28.2154 20.2192 28.6308L20.3231 28.7346L26.0346 34.8615C26.2423 35.0692 26.5538 35.0692 26.7615 34.8615L40.6769 20.4269H40.7808C41.1962 20.0115 41.8192 20.0115 42.2346 20.4269L43.6885 21.8808C44.1038 22.2962 44.1038 22.9192 43.6885 23.3346L27.0731 40.5731C26.8654 40.7808 26.6577 40.8846 26.3462 40.8846C26.0346 40.8846 25.8269 40.7808 25.6192 40.5731L17.5192 31.85L17.3115 31.5385Z" fill="white"/>
</svg>
