<svg width="60" height="60" viewBox="0 0 60 60" fill="none" xmlns="http://www.w3.org/2000/svg">
    <circle cx="30" cy="30" r="30" fill="#xxx"/>
    <g clip-path="url(#clip0)">
        <path fill-rule="evenodd" clip-rule="evenodd"
              d="M33.7092 31.4996L43.3357 21.8731C44.2218 20.9869 44.2218 19.5502 43.3357 18.6642C42.4495 17.7781 41.013 17.7781 40.1268 18.6642L30.5002 28.2908L20.8736 18.6641C19.9875 17.778 18.5509 17.778 17.6647 18.6641C16.7787 19.5502 16.7787 20.9869 17.6647 21.8729L27.2914 31.4994L17.6647 41.1261C16.7787 42.0122 16.7787 43.4489 17.6647 44.3349C18.5509 45.221 19.9875 45.221 20.8736 44.3349L30.5002 34.7083L40.1268 44.3349C41.0128 45.221 42.4495 45.221 43.3357 44.3349C44.2218 43.4488 44.2218 42.0122 43.3357 41.1261L33.7092 31.4996Z"
              fill="white"/>
    </g>
    <defs>
        <clipPath id="clip0">
            <rect width="27" height="27" fill="white" transform="translate(17 18)"/>
        </clipPath>
    </defs>
</svg>
