<svg width="80" height="80" viewBox="0 0 80 80" fill="none" xmlns="http://www.w3.org/2000/svg"><circle cx="40" cy="40" r="40" fill="#29006C"/><g clip-path="url(#a)" fill="#fff"><path d="M40 39.54c4.67 0 8.455-4.597 8.455-10.27C48.455 23.598 47.212 19 40 19c-7.213 0-8.456 4.598-8.456 10.27 0 5.673 3.786 10.27 8.456 10.27zM24.029 55.222c-.001-.345-.003-.097 0 0zm31.941.27c.005-.094.002-.656 0 0z"/><path d="M55.953 54.808c-.157-9.881-1.448-12.697-11.323-14.48 0 0-1.39 1.772-4.63 1.772s-4.63-1.771-4.63-1.771c-9.767 1.763-11.136 4.536-11.316 14.158-.015.785-.022.827-.025.735 0 .171.002.487.002 1.038 0 0 2.35 4.74 15.97 4.74 13.617 0 15.969-4.74 15.969-4.74v-.767c-.002.056-.008-.053-.017-.685z"/></g><defs><clipPath id="a"><path fill="#fff" transform="translate(19 19)" d="M0 0h42v42H0z"/></clipPath></defs></svg>